<svg width="235" height="47" viewBox="0 0 235 47" fill="none" xmlns="http://www.w3.org/2000/svg">
<g clip-path="url(#clip0_2_3)">
<rect width="235" height="46.8266" rx="21.6123" fill="#5F7BC6"/>
<rect x="-0.867188" width="235.867" height="46.8266" rx="21.6123" fill="#4567B3"/>
<path d="M183.938 24.0244V22.2413L193.058 10.5743H195.809L186.766 22.2413L185.467 21.8337H199.707V24.0244H183.938ZM193.848 28.4059V24.0244L193.924 21.8337V17.9617H196.319V28.4059H193.848ZM208.437 28.6097C206.993 28.6097 205.745 28.3974 204.692 27.9728C203.639 27.5483 202.824 26.9454 202.247 26.1642C201.669 25.366 201.381 24.432 201.381 23.3621C201.381 22.3092 201.652 21.4176 202.196 20.6874C202.756 19.9401 203.563 19.3797 204.616 19.0061C205.669 18.6155 206.942 18.4202 208.437 18.4202C209.931 18.4202 211.205 18.6155 212.258 19.0061C213.328 19.3797 214.143 19.9401 214.703 20.6874C215.264 21.4346 215.544 22.3262 215.544 23.3621C215.544 24.432 215.255 25.366 214.678 26.1642C214.1 26.9454 213.277 27.5483 212.207 27.9728C211.137 28.3974 209.88 28.6097 208.437 28.6097ZM208.437 26.5463C209.863 26.5463 210.976 26.2576 211.774 25.6802C212.589 25.0858 212.997 24.2876 212.997 23.2857C212.997 22.3007 212.589 21.528 211.774 20.9676C210.976 20.3902 209.863 20.1015 208.437 20.1015C207.027 20.1015 205.923 20.3902 205.125 20.9676C204.327 21.528 203.928 22.3007 203.928 23.2857C203.928 24.2876 204.327 25.0858 205.125 25.6802C205.923 26.2576 207.027 26.5463 208.437 26.5463ZM208.437 19.7958C207.078 19.7958 205.923 19.6175 204.972 19.2608C204.021 18.8872 203.291 18.3608 202.782 17.6815C202.272 16.9852 202.017 16.1615 202.017 15.2105C202.017 14.2086 202.281 13.351 202.807 12.6377C203.351 11.9074 204.106 11.347 205.074 10.9564C206.042 10.5658 207.163 10.3705 208.437 10.3705C209.727 10.3705 210.857 10.5658 211.825 10.9564C212.793 11.347 213.548 11.9074 214.092 12.6377C214.635 13.351 214.907 14.2086 214.907 15.2105C214.907 16.1615 214.652 16.9852 214.143 17.6815C213.633 18.3608 212.895 18.8872 211.927 19.2608C210.959 19.6175 209.795 19.7958 208.437 19.7958ZM208.437 18.1655C209.676 18.1655 210.644 17.9107 211.341 17.4013C212.054 16.8918 212.411 16.1955 212.411 15.3124C212.411 14.4124 212.046 13.7076 211.315 13.1981C210.585 12.6886 209.626 12.4339 208.437 12.4339C207.248 12.4339 206.297 12.6886 205.584 13.1981C204.887 13.7076 204.539 14.4124 204.539 15.3124C204.539 16.1955 204.879 16.8918 205.558 17.4013C206.255 17.9107 207.214 18.1655 208.437 18.1655Z" fill="white"/>
<path d="M183.757 37.6189C183.467 37.6189 183.188 37.5781 182.922 37.4965C182.656 37.4114 182.445 37.3033 182.289 37.1721L182.529 36.635C182.678 36.752 182.862 36.8495 183.082 36.9275C183.302 37.0055 183.527 37.0445 183.757 37.0445C183.952 37.0445 184.11 37.0232 184.231 36.9807C184.351 36.9381 184.44 36.8814 184.497 36.8105C184.553 36.736 184.582 36.6527 184.582 36.5605C184.582 36.4471 184.541 36.3567 184.459 36.2893C184.378 36.2184 184.271 36.1634 184.14 36.1244C184.013 36.0819 183.869 36.0429 183.709 36.0074C183.553 35.972 183.396 35.9312 183.236 35.8851C183.08 35.8355 182.937 35.7734 182.805 35.699C182.678 35.621 182.573 35.5181 182.492 35.3905C182.41 35.2629 182.369 35.0998 182.369 34.9012C182.369 34.6991 182.422 34.5148 182.529 34.3481C182.639 34.178 182.804 34.0432 183.023 33.9439C183.247 33.8411 183.529 33.7897 183.869 33.7897C184.092 33.7897 184.314 33.8181 184.534 33.8748C184.754 33.9315 184.945 34.0131 185.108 34.1194L184.89 34.6566C184.723 34.5573 184.551 34.4846 184.374 34.4385C184.197 34.3889 184.027 34.3641 183.864 34.3641C183.672 34.3641 183.516 34.3871 183.396 34.4332C183.279 34.4793 183.192 34.5396 183.135 34.614C183.082 34.6885 183.055 34.7736 183.055 34.8693C183.055 34.9828 183.094 35.075 183.172 35.1459C183.254 35.2132 183.358 35.2664 183.486 35.3054C183.617 35.3444 183.763 35.3834 183.922 35.4224C184.082 35.4579 184.239 35.4986 184.395 35.5447C184.555 35.5908 184.699 35.6511 184.826 35.7256C184.957 35.8 185.062 35.9011 185.14 36.0287C185.222 36.1563 185.262 36.3177 185.262 36.5127C185.262 36.7112 185.207 36.8956 185.098 37.0658C184.991 37.2324 184.826 37.3671 184.603 37.4699C184.38 37.5692 184.098 37.6189 183.757 37.6189ZM185.884 37.5657V34.7257H186.549V37.5657H185.884ZM186.219 34.2577C186.095 34.2577 185.992 34.2187 185.911 34.1407C185.833 34.0627 185.794 33.9688 185.794 33.8589C185.794 33.7454 185.833 33.6514 185.911 33.577C185.992 33.499 186.095 33.46 186.219 33.46C186.343 33.46 186.444 33.4972 186.522 33.5717C186.604 33.6426 186.645 33.733 186.645 33.8429C186.645 33.9599 186.606 34.0592 186.528 34.1407C186.45 34.2187 186.347 34.2577 186.219 34.2577ZM188.708 38.6346C188.446 38.6346 188.189 38.5992 187.937 38.5283C187.689 38.4609 187.485 38.3616 187.326 38.2305L187.624 37.7305C187.748 37.8334 187.904 37.9149 188.092 37.9752C188.283 38.039 188.476 38.0709 188.671 38.0709C188.983 38.0709 189.212 37.9982 189.357 37.8529C189.503 37.711 189.575 37.4965 189.575 37.2094V36.7041L189.628 36.0606L189.607 35.4171V34.7257H190.24V37.1349C190.24 37.649 190.109 38.0266 189.847 38.2677C189.584 38.5123 189.205 38.6346 188.708 38.6346ZM188.623 37.438C188.354 37.438 188.109 37.3813 187.889 37.2679C187.673 37.1509 187.501 36.9895 187.374 36.7839C187.249 36.5783 187.187 36.3372 187.187 36.0606C187.187 35.7876 187.249 35.5483 187.374 35.3426C187.501 35.137 187.673 34.9775 187.889 34.864C188.109 34.7505 188.354 34.6938 188.623 34.6938C188.864 34.6938 189.081 34.7417 189.272 34.8374C189.464 34.9331 189.616 35.0821 189.73 35.2841C189.847 35.4862 189.905 35.7451 189.905 36.0606C189.905 36.3762 189.847 36.6368 189.73 36.8424C189.616 37.0445 189.464 37.1952 189.272 37.2944C189.081 37.3902 188.864 37.438 188.623 37.438ZM188.724 36.8743C188.891 36.8743 189.04 36.8406 189.171 36.7733C189.302 36.7023 189.403 36.6066 189.474 36.4861C189.549 36.362 189.586 36.2202 189.586 36.0606C189.586 35.9011 189.549 35.761 189.474 35.6405C189.403 35.5164 189.302 35.4224 189.171 35.3586C189.04 35.2912 188.891 35.2576 188.724 35.2576C188.558 35.2576 188.407 35.2912 188.272 35.3586C188.141 35.4224 188.038 35.5164 187.964 35.6405C187.893 35.761 187.858 35.9011 187.858 36.0606C187.858 36.2202 187.893 36.362 187.964 36.4861C188.038 36.6066 188.141 36.7023 188.272 36.7733C188.407 36.8406 188.558 36.8743 188.724 36.8743ZM192.725 34.6938C192.952 34.6938 193.154 34.7381 193.332 34.8268C193.513 34.9154 193.654 35.0519 193.757 35.2363C193.86 35.4171 193.911 35.6511 193.911 35.9383V37.5657H193.247V36.0234C193.247 35.7717 193.186 35.5837 193.066 35.4596C192.949 35.3356 192.784 35.2735 192.571 35.2735C192.415 35.2735 192.277 35.3054 192.156 35.3692C192.036 35.4331 191.942 35.5288 191.875 35.6564C191.811 35.7805 191.779 35.9383 191.779 36.1297V37.5657H191.114V34.7257H191.747V35.4916L191.635 35.2576C191.735 35.0767 191.878 34.9385 192.066 34.8427C192.257 34.7435 192.477 34.6938 192.725 34.6938ZM196.504 37.5657V36.9913L196.467 36.869V35.8638C196.467 35.6688 196.409 35.5181 196.292 35.4118C196.175 35.3019 195.997 35.2469 195.76 35.2469C195.6 35.2469 195.443 35.2717 195.287 35.3214C195.134 35.371 195.005 35.4401 194.898 35.5288L194.638 35.0448C194.79 34.9278 194.971 34.841 195.18 34.7842C195.393 34.724 195.613 34.6938 195.84 34.6938C196.251 34.6938 196.568 34.7931 196.792 34.9916C197.019 35.1866 197.132 35.4898 197.132 35.9011V37.5657H196.504ZM195.611 37.6029C195.398 37.6029 195.212 37.5674 195.053 37.4965C194.893 37.4221 194.769 37.321 194.68 37.1934C194.595 37.0622 194.553 36.9151 194.553 36.752C194.553 36.5924 194.59 36.4488 194.664 36.3212C194.742 36.1936 194.868 36.0925 195.042 36.0181C195.216 35.9436 195.446 35.9064 195.733 35.9064H196.558V36.3478H195.781C195.554 36.3478 195.402 36.385 195.324 36.4595C195.246 36.5304 195.207 36.619 195.207 36.7254C195.207 36.8459 195.255 36.9417 195.35 37.0126C195.446 37.0835 195.579 37.1189 195.749 37.1189C195.912 37.1189 196.058 37.0817 196.185 37.0073C196.317 36.9328 196.411 36.8229 196.467 36.6775L196.579 37.0764C196.515 37.243 196.4 37.3724 196.233 37.4646C196.07 37.5568 195.863 37.6029 195.611 37.6029ZM197.985 37.5657V33.6195H198.65V37.5657H197.985ZM200.4 37.6029C200.162 37.6029 199.934 37.5728 199.714 37.5125C199.498 37.4487 199.326 37.3724 199.198 37.2838L199.453 36.7786C199.581 36.8601 199.733 36.9275 199.911 36.9807C200.088 37.0338 200.265 37.0604 200.443 37.0604C200.652 37.0604 200.802 37.0321 200.895 36.9753C200.99 36.9186 201.038 36.8424 201.038 36.7467C201.038 36.6687 201.006 36.6102 200.942 36.5712C200.879 36.5286 200.795 36.4967 200.693 36.4754C200.59 36.4542 200.474 36.4347 200.347 36.4169C200.223 36.3992 200.097 36.3762 199.969 36.3478C199.845 36.3159 199.732 36.2716 199.629 36.2148C199.526 36.1546 199.443 36.0748 199.379 35.9755C199.315 35.8762 199.283 35.7451 199.283 35.582C199.283 35.4011 199.335 35.2451 199.437 35.114C199.54 34.9792 199.684 34.8764 199.868 34.8055C200.056 34.731 200.278 34.6938 200.533 34.6938C200.724 34.6938 200.918 34.7151 201.113 34.7576C201.308 34.8002 201.469 34.8605 201.597 34.9385L201.341 35.4437C201.207 35.3621 201.07 35.3072 200.932 35.2788C200.797 35.2469 200.662 35.231 200.528 35.231C200.326 35.231 200.175 35.2611 200.076 35.3214C199.98 35.3816 199.932 35.4579 199.932 35.5501C199.932 35.6352 199.964 35.699 200.028 35.7415C200.092 35.7841 200.175 35.8177 200.278 35.8426C200.381 35.8674 200.494 35.8887 200.618 35.9064C200.746 35.9206 200.872 35.9436 200.996 35.9755C201.12 36.0074 201.233 36.0517 201.336 36.1085C201.442 36.1617 201.527 36.2379 201.591 36.3372C201.655 36.4364 201.687 36.5658 201.687 36.7254C201.687 36.9027 201.634 37.0569 201.527 37.1881C201.425 37.3193 201.278 37.4221 201.086 37.4965C200.895 37.5674 200.666 37.6029 200.4 37.6029ZM203.82 37.5657V34.5662C203.82 34.2684 203.907 34.0308 204.08 33.8535C204.258 33.6727 204.509 33.5823 204.836 33.5823C204.953 33.5823 205.062 33.5947 205.165 33.6195C205.272 33.6444 205.36 33.6834 205.431 33.7365L205.25 34.2365C205.201 34.1975 205.144 34.1691 205.08 34.1514C205.016 34.1301 204.951 34.1194 204.883 34.1194C204.745 34.1194 204.641 34.1585 204.57 34.2365C204.499 34.3109 204.463 34.4244 204.463 34.5768V34.8959L204.485 35.1937V37.5657H203.82ZM203.352 35.2788V34.747H205.245V35.2788H203.352ZM205.698 37.5657V34.7257H206.331V35.5075L206.256 35.2788C206.341 35.0874 206.474 34.942 206.655 34.8427C206.839 34.7435 207.068 34.6938 207.341 34.6938V35.3267C207.313 35.3196 207.286 35.3161 207.261 35.3161C207.236 35.3125 207.212 35.3107 207.187 35.3107C206.935 35.3107 206.735 35.3852 206.586 35.5341C206.437 35.6795 206.362 35.8975 206.362 36.1882V37.5657H205.698ZM209.214 37.6029C208.898 37.6029 208.622 37.5409 208.384 37.4168C208.15 37.2891 207.968 37.1154 207.836 36.8956C207.709 36.6758 207.645 36.4258 207.645 36.1457C207.645 35.8621 207.707 35.6121 207.831 35.3958C207.959 35.176 208.133 35.0041 208.352 34.88C208.576 34.7559 208.829 34.6938 209.113 34.6938C209.389 34.6938 209.636 34.7541 209.852 34.8746C210.068 34.9952 210.239 35.1654 210.363 35.3852C210.487 35.605 210.549 35.8638 210.549 36.1617C210.549 36.19 210.547 36.2219 210.543 36.2574C210.543 36.2928 210.542 36.3265 210.538 36.3584H208.172V35.917H210.187L209.927 36.0553C209.93 35.8922 209.896 35.7486 209.825 35.6245C209.755 35.5004 209.657 35.4029 209.533 35.332C209.412 35.2611 209.272 35.2256 209.113 35.2256C208.95 35.2256 208.806 35.2611 208.682 35.332C208.562 35.4029 208.466 35.5022 208.395 35.6298C208.328 35.7539 208.294 35.9011 208.294 36.0712V36.1776C208.294 36.3478 208.333 36.4985 208.411 36.6297C208.489 36.7608 208.599 36.8619 208.741 36.9328C208.882 37.0037 209.045 37.0392 209.23 37.0392C209.389 37.0392 209.533 37.0143 209.661 36.9647C209.788 36.9151 209.902 36.8371 210.001 36.7307L210.357 37.1402C210.23 37.2891 210.068 37.4044 209.873 37.4859C209.682 37.5639 209.462 37.6029 209.214 37.6029ZM212.522 37.6029C212.207 37.6029 211.93 37.5409 211.693 37.4168C211.459 37.2891 211.276 37.1154 211.145 36.8956C211.017 36.6758 210.953 36.4258 210.953 36.1457C210.953 35.8621 211.015 35.6121 211.139 35.3958C211.267 35.176 211.441 35.0041 211.661 34.88C211.884 34.7559 212.138 34.6938 212.421 34.6938C212.698 34.6938 212.944 34.7541 213.16 34.8746C213.377 34.9952 213.547 35.1654 213.671 35.3852C213.795 35.605 213.857 35.8638 213.857 36.1617C213.857 36.19 213.855 36.2219 213.852 36.2574C213.852 36.2928 213.85 36.3265 213.846 36.3584H211.48V35.917H213.495L213.235 36.0553C213.238 35.8922 213.205 35.7486 213.134 35.6245C213.063 35.5004 212.965 35.4029 212.841 35.332C212.721 35.2611 212.581 35.2256 212.421 35.2256C212.258 35.2256 212.114 35.2611 211.99 35.332C211.87 35.4029 211.774 35.5022 211.703 35.6298C211.636 35.7539 211.602 35.9011 211.602 36.0712V36.1776C211.602 36.3478 211.641 36.4985 211.719 36.6297C211.797 36.7608 211.907 36.8619 212.049 36.9328C212.191 37.0037 212.354 37.0392 212.538 37.0392C212.698 37.0392 212.841 37.0143 212.969 36.9647C213.097 36.9151 213.21 36.8371 213.309 36.7307L213.666 37.1402C213.538 37.2891 213.377 37.4044 213.182 37.4859C212.99 37.5639 212.77 37.6029 212.522 37.6029ZM215.698 37.6029C215.425 37.6029 215.178 37.5426 214.958 37.4221C214.742 37.298 214.572 37.1278 214.448 36.9115C214.324 36.6953 214.262 36.44 214.262 36.1457C214.262 35.8514 214.324 35.5961 214.448 35.3799C214.572 35.1636 214.742 34.9952 214.958 34.8746C215.178 34.7541 215.425 34.6938 215.698 34.6938C215.935 34.6938 216.148 34.747 216.336 34.8534C216.524 34.9562 216.673 35.114 216.782 35.3267C216.892 35.5394 216.947 35.8124 216.947 36.1457C216.947 36.4754 216.894 36.7484 216.788 36.9647C216.681 37.1774 216.534 37.337 216.346 37.4434C216.158 37.5497 215.942 37.6029 215.698 37.6029ZM215.777 37.0338C215.937 37.0338 216.079 36.9984 216.203 36.9275C216.33 36.8566 216.431 36.7538 216.506 36.619C216.584 36.4843 216.623 36.3265 216.623 36.1457C216.623 35.9613 216.584 35.8036 216.506 35.6724C216.431 35.5376 216.33 35.4348 216.203 35.3639C216.079 35.293 215.937 35.2576 215.777 35.2576C215.618 35.2576 215.474 35.293 215.347 35.3639C215.222 35.4348 215.121 35.5376 215.043 35.6724C214.969 35.8036 214.932 35.9613 214.932 36.1457C214.932 36.3265 214.969 36.4843 215.043 36.619C215.121 36.7538 215.222 36.8566 215.347 36.9275C215.474 36.9984 215.618 37.0338 215.777 37.0338ZM216.639 37.5657V36.8956L216.665 36.1404L216.612 35.3852V33.6195H217.272V37.5657H216.639Z" fill="white"/>
<rect width="174.299" height="46.8266" rx="21.6123" fill="#3159A1"/>
<path d="M136.904 28.4059V11.5933L137.999 12.7905H132.879V10.5743H139.426V28.4059H136.904ZM143.046 28.4059V26.6737L150.306 19.6684C150.951 19.0571 151.427 18.5221 151.733 18.0636C152.055 17.5881 152.268 17.155 152.369 16.7644C152.488 16.3568 152.548 15.9662 152.548 15.5926C152.548 14.6756 152.225 13.9538 151.58 13.4274C150.934 12.9009 149.992 12.6377 148.752 12.6377C147.801 12.6377 146.944 12.799 146.179 13.1217C145.415 13.4274 144.753 13.9114 144.192 14.5737L142.46 13.0707C143.139 12.2046 144.048 11.5423 145.186 11.0838C146.341 10.6083 147.606 10.3705 148.981 10.3705C150.221 10.3705 151.3 10.5743 152.217 10.9819C153.134 11.3725 153.838 11.9414 154.331 12.6886C154.84 13.4359 155.095 14.319 155.095 15.3379C155.095 15.9153 155.019 16.4842 154.866 17.0446C154.713 17.6051 154.424 18.1994 154 18.8278C153.575 19.4561 152.964 20.1609 152.166 20.9421L145.695 27.1831L145.084 26.1897H155.859V28.4059H143.046Z" fill="white"/>
<path d="M130.345 35.3905H132.196V35.9596H130.345V35.3905ZM130.398 36.986H132.499V37.5657H129.707V33.8429H132.424V34.4226H130.398V36.986ZM136.79 34.6938C137.017 34.6938 137.217 34.7381 137.391 34.8268C137.568 34.9154 137.707 35.0519 137.806 35.2363C137.905 35.4171 137.955 35.6511 137.955 35.9383V37.5657H137.29V36.0234C137.29 35.7717 137.235 35.5837 137.125 35.4596C137.015 35.3356 136.857 35.2735 136.652 35.2735C136.506 35.2735 136.377 35.3054 136.264 35.3692C136.154 35.4331 136.067 35.527 136.003 35.6511C135.943 35.7752 135.913 35.933 135.913 36.1244V37.5657H135.248V36.0234C135.248 35.7717 135.193 35.5837 135.083 35.4596C134.973 35.3356 134.815 35.2735 134.61 35.2735C134.464 35.2735 134.335 35.3054 134.221 35.3692C134.111 35.4331 134.025 35.527 133.961 35.6511C133.9 35.7752 133.87 35.933 133.87 36.1244V37.5657H133.206V34.7257H133.838V35.4809L133.727 35.2576C133.822 35.0732 133.961 34.9331 134.142 34.8374C134.326 34.7417 134.535 34.6938 134.769 34.6938C135.035 34.6938 135.266 34.7594 135.461 34.8906C135.659 35.0218 135.79 35.2203 135.854 35.4862L135.593 35.3958C135.686 35.1831 135.838 35.0129 136.051 34.8853C136.264 34.7576 136.51 34.6938 136.79 34.6938ZM140.144 37.6029C139.829 37.6029 139.552 37.5409 139.315 37.4168C139.081 37.2891 138.898 37.1154 138.767 36.8956C138.639 36.6758 138.575 36.4258 138.575 36.1457C138.575 35.8621 138.638 35.6121 138.762 35.3958C138.889 35.176 139.063 35.0041 139.283 34.88C139.506 34.7559 139.76 34.6938 140.043 34.6938C140.32 34.6938 140.566 34.7541 140.783 34.8746C140.999 34.9952 141.169 35.1654 141.293 35.3852C141.417 35.605 141.479 35.8638 141.479 36.1617C141.479 36.19 141.477 36.2219 141.474 36.2574C141.474 36.2928 141.472 36.3265 141.469 36.3584H139.102V35.917H141.118L140.857 36.0553C140.861 35.8922 140.827 35.7486 140.756 35.6245C140.685 35.5004 140.588 35.4029 140.463 35.332C140.343 35.2611 140.203 35.2256 140.043 35.2256C139.88 35.2256 139.737 35.2611 139.613 35.332C139.492 35.4029 139.396 35.5022 139.325 35.6298C139.258 35.7539 139.224 35.9011 139.224 36.0712V36.1776C139.224 36.3478 139.263 36.4985 139.341 36.6297C139.419 36.7608 139.529 36.8619 139.671 36.9328C139.813 37.0037 139.976 37.0392 140.16 37.0392C140.32 37.0392 140.463 37.0143 140.591 36.9647C140.719 36.9151 140.832 36.8371 140.931 36.7307L141.288 37.1402C141.16 37.2891 140.999 37.4044 140.804 37.4859C140.612 37.5639 140.393 37.6029 140.144 37.6029ZM142.118 37.5657V34.7257H142.751V35.5075L142.676 35.2788C142.761 35.0874 142.894 34.942 143.075 34.8427C143.259 34.7435 143.488 34.6938 143.761 34.6938V35.3267C143.733 35.3196 143.706 35.3161 143.681 35.3161C143.657 35.3125 143.632 35.3107 143.607 35.3107C143.355 35.3107 143.155 35.3852 143.006 35.5341C142.857 35.6795 142.783 35.8975 142.783 36.1882V37.5657H142.118ZM145.586 38.6346C145.324 38.6346 145.067 38.5992 144.815 38.5283C144.567 38.4609 144.363 38.3616 144.203 38.2305L144.501 37.7305C144.625 37.8334 144.781 37.9149 144.969 37.9752C145.161 38.039 145.354 38.0709 145.549 38.0709C145.861 38.0709 146.09 37.9982 146.235 37.8529C146.38 37.711 146.453 37.4965 146.453 37.2094V36.7041L146.506 36.0606L146.485 35.4171V34.7257H147.118V37.1349C147.118 37.649 146.987 38.0266 146.724 38.2677C146.462 38.5123 146.082 38.6346 145.586 38.6346ZM145.501 37.438C145.232 37.438 144.987 37.3813 144.767 37.2679C144.551 37.1509 144.379 36.9895 144.251 36.7839C144.127 36.5783 144.065 36.3372 144.065 36.0606C144.065 35.7876 144.127 35.5483 144.251 35.3426C144.379 35.137 144.551 34.9775 144.767 34.864C144.987 34.7505 145.232 34.6938 145.501 34.6938C145.742 34.6938 145.958 34.7417 146.15 34.8374C146.341 34.9331 146.494 35.0821 146.607 35.2841C146.724 35.4862 146.783 35.7451 146.783 36.0606C146.783 36.3762 146.724 36.6368 146.607 36.8424C146.494 37.0445 146.341 37.1952 146.15 37.2944C145.958 37.3902 145.742 37.438 145.501 37.438ZM145.602 36.8743C145.769 36.8743 145.918 36.8406 146.049 36.7733C146.18 36.7023 146.281 36.6066 146.352 36.4861C146.426 36.362 146.464 36.2202 146.464 36.0606C146.464 35.9011 146.426 35.761 146.352 35.6405C146.281 35.5164 146.18 35.4224 146.049 35.3586C145.918 35.2912 145.769 35.2576 145.602 35.2576C145.435 35.2576 145.285 35.2912 145.15 35.3586C145.019 35.4224 144.916 35.5164 144.842 35.6405C144.771 35.761 144.735 35.9011 144.735 36.0606C144.735 36.2202 144.771 36.362 144.842 36.4861C144.916 36.6066 145.019 36.7023 145.15 36.7733C145.285 36.8406 145.435 36.8743 145.602 36.8743ZM149.327 37.6029C149.011 37.6029 148.735 37.5409 148.497 37.4168C148.263 37.2891 148.08 37.1154 147.949 36.8956C147.822 36.6758 147.758 36.4258 147.758 36.1457C147.758 35.8621 147.82 35.6121 147.944 35.3958C148.072 35.176 148.245 35.0041 148.465 34.88C148.688 34.7559 148.942 34.6938 149.226 34.6938C149.502 34.6938 149.749 34.7541 149.965 34.8746C150.181 34.9952 150.351 35.1654 150.475 35.3852C150.599 35.605 150.662 35.8638 150.662 36.1617C150.662 36.19 150.66 36.2219 150.656 36.2574C150.656 36.2928 150.654 36.3265 150.651 36.3584H148.284V35.917H150.3L150.039 36.0553C150.043 35.8922 150.009 35.7486 149.938 35.6245C149.867 35.5004 149.77 35.4029 149.646 35.332C149.525 35.2611 149.385 35.2256 149.226 35.2256C149.062 35.2256 148.919 35.2611 148.795 35.332C148.674 35.4029 148.579 35.5022 148.508 35.6298C148.44 35.7539 148.407 35.9011 148.407 36.0712V36.1776C148.407 36.3478 148.446 36.4985 148.524 36.6297C148.602 36.7608 148.711 36.8619 148.853 36.9328C148.995 37.0037 149.158 37.0392 149.343 37.0392C149.502 37.0392 149.646 37.0143 149.773 36.9647C149.901 36.9151 150.014 36.8371 150.114 36.7307L150.47 37.1402C150.342 37.2891 150.181 37.4044 149.986 37.4859C149.795 37.5639 149.575 37.6029 149.327 37.6029ZM152.912 34.6938C153.138 34.6938 153.341 34.7381 153.518 34.8268C153.699 34.9154 153.84 35.0519 153.943 35.2363C154.046 35.4171 154.097 35.6511 154.097 35.9383V37.5657H153.433V36.0234C153.433 35.7717 153.372 35.5837 153.252 35.4596C153.135 35.3356 152.97 35.2735 152.757 35.2735C152.601 35.2735 152.463 35.3054 152.342 35.3692C152.222 35.4331 152.128 35.5288 152.061 35.6564C151.997 35.7805 151.965 35.9383 151.965 36.1297V37.5657H151.3V34.7257H151.933V35.4916L151.821 35.2576C151.921 35.0767 152.064 34.9385 152.252 34.8427C152.443 34.7435 152.663 34.6938 152.912 34.6938ZM156.249 37.6029C155.951 37.6029 155.685 37.5409 155.451 37.4168C155.221 37.2891 155.04 37.1154 154.909 36.8956C154.778 36.6758 154.712 36.4258 154.712 36.1457C154.712 35.8621 154.778 35.6121 154.909 35.3958C155.04 35.176 155.221 35.0041 155.451 34.88C155.685 34.7559 155.951 34.6938 156.249 34.6938C156.526 34.6938 156.768 34.7505 156.978 34.864C157.19 34.9739 157.352 35.137 157.462 35.3533L156.951 35.6511C156.866 35.5164 156.761 35.4171 156.637 35.3533C156.517 35.2895 156.385 35.2576 156.244 35.2576C156.081 35.2576 155.933 35.293 155.802 35.3639C155.671 35.4348 155.568 35.5376 155.494 35.6724C155.419 35.8036 155.382 35.9613 155.382 36.1457C155.382 36.3301 155.419 36.4896 155.494 36.6243C155.568 36.7555 155.671 36.8566 155.802 36.9275C155.933 36.9984 156.081 37.0338 156.244 37.0338C156.385 37.0338 156.517 37.0019 156.637 36.9381C156.761 36.8743 156.866 36.775 156.951 36.6403L157.462 36.9381C157.352 37.1509 157.19 37.3157 156.978 37.4327C156.768 37.5462 156.526 37.6029 156.249 37.6029ZM158.234 38.6346C158.096 38.6346 157.957 38.6116 157.819 38.5655C157.681 38.5194 157.565 38.4556 157.473 38.374L157.739 37.8848C157.807 37.945 157.883 37.9929 157.968 38.0284C158.053 38.0638 158.14 38.0815 158.229 38.0815C158.349 38.0815 158.447 38.0514 158.521 37.9911C158.595 37.9309 158.665 37.8298 158.728 37.688L158.893 37.3157L158.946 37.2359L160.021 34.7257H160.659L159.329 37.7944C159.241 38.0071 159.141 38.1755 159.032 38.2996C158.925 38.4237 158.805 38.5105 158.67 38.5602C158.539 38.6098 158.393 38.6346 158.234 38.6346ZM158.819 37.6667L157.537 34.7257H158.229L159.271 37.1774L158.819 37.6667Z" fill="white"/>
<rect width="126.605" height="46.8266" rx="21.6123" fill="#194789"/>
<path d="M78.6976 27.5387V10.7261L79.7929 11.9233H74.6727V9.70714H81.2195V27.5387H78.6976ZM90.877 27.7425C89.6203 27.7425 88.3975 27.5472 87.2087 27.1566C86.037 26.766 85.0774 26.2395 84.3302 25.5772L85.502 23.5648C86.0964 24.1252 86.8691 24.5838 87.8201 24.9404C88.7711 25.297 89.7816 25.4753 90.8515 25.4753C92.2101 25.4753 93.2545 25.1866 93.9847 24.6092C94.715 24.0318 95.0801 23.2591 95.0801 22.2911C95.0801 21.6288 94.9188 21.0514 94.5961 20.5589C94.2734 20.0664 93.713 19.6928 92.9148 19.4381C92.1337 19.1664 91.0553 19.0305 89.6797 19.0305H85.6294L86.5719 9.70714H96.634V11.9233H87.5144L88.8391 10.6751L88.1003 18.037L86.7757 16.8143H90.2146C91.9978 16.8143 93.4328 17.0436 94.5197 17.5021C95.6066 17.9606 96.3962 18.5974 96.8887 19.4126C97.3812 20.2108 97.6275 21.1363 97.6275 22.1892C97.6275 23.2082 97.3812 24.1422 96.8887 24.9913C96.3962 25.8235 95.649 26.4943 94.6471 27.0037C93.6621 27.4962 92.4054 27.7425 90.877 27.7425Z" fill="white"/>
<path d="M103.665 25.1097C103.892 25.1097 104.092 25.154 104.266 25.2427C104.443 25.3313 104.582 25.4678 104.681 25.6522C104.78 25.833 104.83 26.067 104.83 26.3542V27.9816H104.165V26.4393C104.165 26.1875 104.11 25.9996 104 25.8755C103.89 25.7514 103.733 25.6894 103.527 25.6894C103.382 25.6894 103.252 25.7213 103.139 25.7851C103.029 25.849 102.942 25.9429 102.878 26.067C102.818 26.1911 102.788 26.3489 102.788 26.5403V27.9816H102.123V26.4393C102.123 26.1875 102.068 25.9996 101.958 25.8755C101.848 25.7514 101.69 25.6894 101.485 25.6894C101.339 25.6894 101.21 25.7213 101.097 25.7851C100.987 25.849 100.9 25.9429 100.836 26.067C100.776 26.1911 100.746 26.3489 100.746 26.5403V27.9816H100.081V25.1416H100.714V25.8968L100.602 25.6734C100.698 25.4891 100.836 25.349 101.017 25.2533C101.201 25.1576 101.41 25.1097 101.644 25.1097C101.91 25.1097 102.141 25.1753 102.336 25.3065C102.534 25.4377 102.665 25.6362 102.729 25.9021L102.469 25.8117C102.561 25.599 102.713 25.4288 102.926 25.3012C103.139 25.1735 103.385 25.1097 103.665 25.1097ZM105.679 27.9816V25.1416H106.344V27.9816H105.679ZM106.014 24.6736C105.89 24.6736 105.788 24.6346 105.706 24.5566C105.628 24.4786 105.589 24.3847 105.589 24.2747C105.589 24.1613 105.628 24.0673 105.706 23.9929C105.788 23.9149 105.89 23.8759 106.014 23.8759C106.139 23.8759 106.24 23.9131 106.318 23.9876C106.399 24.0585 106.44 24.1489 106.44 24.2588C106.44 24.3758 106.401 24.4751 106.323 24.5566C106.245 24.6346 106.142 24.6736 106.014 24.6736ZM108.828 25.1097C109.055 25.1097 109.257 25.154 109.434 25.2427C109.615 25.3313 109.757 25.4678 109.86 25.6522C109.963 25.833 110.014 26.067 110.014 26.3542V27.9816H109.349V26.4393C109.349 26.1875 109.289 25.9996 109.169 25.8755C109.052 25.7514 108.887 25.6894 108.674 25.6894C108.518 25.6894 108.38 25.7213 108.259 25.7851C108.139 25.849 108.045 25.9447 107.977 26.0723C107.913 26.1964 107.882 26.3542 107.882 26.5456V27.9816H107.217V25.1416H107.85V25.9075L107.738 25.6734C107.837 25.4926 107.981 25.3544 108.169 25.2586C108.36 25.1594 108.58 25.1097 108.828 25.1097Z" fill="white"/>
<path d="M73.6422 36.3997V33.5597H74.2751V34.3415L74.2006 34.1128C74.2857 33.9214 74.4187 33.776 74.5995 33.6767C74.7839 33.5774 75.0126 33.5278 75.2856 33.5278V34.1607C75.2572 34.1536 75.2306 34.15 75.2058 34.15C75.181 34.1465 75.1561 34.1447 75.1313 34.1447C74.8796 34.1447 74.6793 34.2192 74.5304 34.3681C74.3815 34.5135 74.307 34.7315 74.307 35.0222V36.3997H73.6422ZM77.1584 36.4369C76.8429 36.4369 76.5663 36.3748 76.3288 36.2507C76.0948 36.1231 75.9122 35.9494 75.781 35.7296C75.6534 35.5097 75.5895 35.2598 75.5895 34.9797C75.5895 34.696 75.6516 34.4461 75.7757 34.2298C75.9033 34.01 76.077 33.838 76.2969 33.7139C76.5202 33.5899 76.7737 33.5278 77.0574 33.5278C77.3339 33.5278 77.5803 33.5881 77.7966 33.7086C78.0129 33.8292 78.1831 33.9994 78.3072 34.2192C78.4312 34.439 78.4933 34.6978 78.4933 34.9956C78.4933 35.024 78.4915 35.0559 78.488 35.0914C78.488 35.1268 78.4862 35.1605 78.4827 35.1924H76.116V34.751H78.1317L77.8711 34.8893C77.8746 34.7262 77.8409 34.5826 77.77 34.4585C77.6991 34.3344 77.6016 34.2369 77.4775 34.166C77.357 34.0951 77.2169 34.0596 77.0574 34.0596C76.8943 34.0596 76.7507 34.0951 76.6266 34.166C76.506 34.2369 76.4103 34.3362 76.3394 34.4638C76.272 34.5879 76.2384 34.735 76.2384 34.9052V35.0116C76.2384 35.1818 76.2774 35.3325 76.3554 35.4636C76.4334 35.5948 76.5433 35.6959 76.6851 35.7668C76.8269 35.8377 76.99 35.8732 77.1744 35.8732C77.3339 35.8732 77.4775 35.8483 77.6051 35.7987C77.7328 35.7491 77.8462 35.6711 77.9455 35.5647L78.3018 35.9742C78.1742 36.1231 78.0129 36.2383 77.8179 36.3199C77.6264 36.3979 77.4066 36.4369 77.1584 36.4369ZM80.0094 36.4369C79.7718 36.4369 79.5431 36.4067 79.3233 36.3465C79.107 36.2827 78.9351 36.2064 78.8074 36.1178L79.0627 35.6126C79.1904 35.6941 79.3428 35.7615 79.5201 35.8147C79.6974 35.8678 79.8746 35.8944 80.0519 35.8944C80.2611 35.8944 80.4118 35.8661 80.504 35.8093C80.5997 35.7526 80.6476 35.6764 80.6476 35.5806C80.6476 35.5026 80.6156 35.4441 80.5518 35.4051C80.488 35.3626 80.4047 35.3307 80.3019 35.3094C80.1991 35.2881 80.0838 35.2686 79.9562 35.2509C79.8321 35.2332 79.7062 35.2101 79.5786 35.1818C79.4545 35.1499 79.341 35.1056 79.2382 35.0488C79.1354 34.9885 79.0521 34.9088 78.9883 34.8095C78.9244 34.7102 78.8925 34.579 78.8925 34.416C78.8925 34.2351 78.9439 34.0791 79.0468 33.9479C79.1496 33.8132 79.2932 33.7104 79.4775 33.6395C79.6655 33.565 79.887 33.5278 80.1423 33.5278C80.3338 33.5278 80.527 33.5491 80.722 33.5916C80.917 33.6342 81.0783 33.6944 81.206 33.7724L80.9507 34.2777C80.816 34.1961 80.6795 34.1412 80.5412 34.1128C80.4065 34.0809 80.2717 34.0649 80.137 34.0649C79.9349 34.0649 79.7842 34.0951 79.685 34.1554C79.5892 34.2156 79.5414 34.2919 79.5414 34.384C79.5414 34.4691 79.5733 34.533 79.6371 34.5755C79.7009 34.618 79.7842 34.6517 79.887 34.6765C79.9899 34.7014 80.1033 34.7226 80.2274 34.7404C80.3551 34.7545 80.4809 34.7776 80.605 34.8095C80.7291 34.8414 80.8426 34.8857 80.9454 34.9425C81.0517 34.9956 81.1368 35.0719 81.2007 35.1711C81.2645 35.2704 81.2964 35.3998 81.2964 35.5594C81.2964 35.7367 81.2432 35.8909 81.1368 36.0221C81.034 36.1532 80.8869 36.2561 80.6954 36.3305C80.504 36.4014 80.2753 36.4369 80.0094 36.4369ZM83.4431 36.4369C83.2126 36.4369 83.0017 36.3837 82.8102 36.2773C82.6223 36.171 82.4716 36.0114 82.3582 35.7987C82.2483 35.5824 82.1933 35.3094 82.1933 34.9797C82.1933 34.6464 82.2465 34.3734 82.3528 34.1607C82.4628 33.9479 82.6117 33.7902 82.7996 33.6874C82.9875 33.581 83.202 33.5278 83.4431 33.5278C83.7232 33.5278 83.9696 33.5881 84.1823 33.7086C84.3986 33.8292 84.5688 33.9976 84.6929 34.2139C84.8205 34.4301 84.8843 34.6854 84.8843 34.9797C84.8843 35.274 84.8205 35.531 84.6929 35.7508C84.5688 35.9671 84.3986 36.1355 84.1823 36.2561C83.9696 36.3766 83.7232 36.4369 83.4431 36.4369ZM81.8689 37.4314V33.5597H82.5018V34.2298L82.4805 34.985L82.5337 35.7402V37.4314H81.8689ZM83.3686 35.8678C83.5282 35.8678 83.67 35.8324 83.7941 35.7615C83.9217 35.6906 84.0228 35.5877 84.0972 35.453C84.1717 35.3183 84.2089 35.1605 84.2089 34.9797C84.2089 34.7953 84.1717 34.6375 84.0972 34.5064C84.0228 34.3716 83.9217 34.2688 83.7941 34.1979C83.67 34.127 83.5282 34.0915 83.3686 34.0915C83.2091 34.0915 83.0655 34.127 82.9379 34.1979C82.8102 34.2688 82.7092 34.3716 82.6347 34.5064C82.5603 34.6375 82.523 34.7953 82.523 34.9797C82.523 35.1605 82.5603 35.3183 82.6347 35.453C82.7092 35.5877 82.8102 35.6906 82.9379 35.7615C83.0655 35.8324 83.2091 35.8678 83.3686 35.8678ZM86.7912 36.4369C86.5004 36.4369 86.2416 36.3748 86.0147 36.2507C85.7878 36.1231 85.6087 35.9494 85.4776 35.7296C85.3464 35.5097 85.2808 35.2598 85.2808 34.9797C85.2808 34.696 85.3464 34.4461 85.4776 34.2298C85.6087 34.01 85.7878 33.838 86.0147 33.7139C86.2416 33.5899 86.5004 33.5278 86.7912 33.5278C87.0854 33.5278 87.346 33.5899 87.573 33.7139C87.8034 33.838 87.9825 34.0082 88.1101 34.2245C88.2413 34.4408 88.3069 34.6925 88.3069 34.9797C88.3069 35.2598 88.2413 35.5097 88.1101 35.7296C87.9825 35.9494 87.8034 36.1231 87.573 36.2507C87.346 36.3748 87.0854 36.4369 86.7912 36.4369ZM86.7912 35.8678C86.9543 35.8678 87.0996 35.8324 87.2273 35.7615C87.3549 35.6906 87.4542 35.5877 87.5251 35.453C87.5995 35.3183 87.6368 35.1605 87.6368 34.9797C87.6368 34.7953 87.5995 34.6375 87.5251 34.5064C87.4542 34.3716 87.3549 34.2688 87.2273 34.1979C87.0996 34.127 86.956 34.0915 86.7965 34.0915C86.6334 34.0915 86.488 34.127 86.3604 34.1979C86.2363 34.2688 86.137 34.3716 86.0626 34.5064C85.9881 34.6375 85.9509 34.7953 85.9509 34.9797C85.9509 35.1605 85.9881 35.3183 86.0626 35.453C86.137 35.5877 86.2363 35.6906 86.3604 35.7615C86.488 35.8324 86.6316 35.8678 86.7912 35.8678ZM90.554 33.5278C90.7809 33.5278 90.983 33.5721 91.1603 33.6608C91.3411 33.7494 91.4829 33.8859 91.5857 34.0703C91.6886 34.2511 91.74 34.4851 91.74 34.7723V36.3997H91.0752V34.8574C91.0752 34.6056 91.0149 34.4177 90.8944 34.2936C90.7774 34.1695 90.6125 34.1075 90.3998 34.1075C90.2438 34.1075 90.1055 34.1394 89.9849 34.2032C89.8644 34.267 89.7704 34.3628 89.7031 34.4904C89.6393 34.6145 89.6073 34.7723 89.6073 34.9637V36.3997H88.9426V33.5597H89.5754V34.3255L89.4638 34.0915C89.563 33.9107 89.7066 33.7724 89.8945 33.6767C90.086 33.5774 90.3058 33.5278 90.554 33.5278ZM93.4608 36.4369C93.2232 36.4369 92.9946 36.4067 92.7747 36.3465C92.5585 36.2827 92.3865 36.2064 92.2589 36.1178L92.5141 35.6126C92.6418 35.6941 92.7942 35.7615 92.9715 35.8147C93.1488 35.8678 93.3261 35.8944 93.5033 35.8944C93.7125 35.8944 93.8632 35.8661 93.9554 35.8093C94.0511 35.7526 94.099 35.6764 94.099 35.5806C94.099 35.5026 94.0671 35.4441 94.0033 35.4051C93.9394 35.3626 93.8561 35.3307 93.7533 35.3094C93.6505 35.2881 93.5352 35.2686 93.4076 35.2509C93.2835 35.2332 93.1577 35.2101 93.03 35.1818C92.9059 35.1499 92.7925 35.1056 92.6896 35.0488C92.5868 34.9885 92.5035 34.9088 92.4397 34.8095C92.3759 34.7102 92.344 34.579 92.344 34.416C92.344 34.2351 92.3954 34.0791 92.4982 33.9479C92.601 33.8132 92.7446 33.7104 92.929 33.6395C93.1169 33.565 93.3385 33.5278 93.5937 33.5278C93.7852 33.5278 93.9784 33.5491 94.1734 33.5916C94.3684 33.6342 94.5298 33.6944 94.6574 33.7724L94.4021 34.2777C94.2674 34.1961 94.1309 34.1412 93.9926 34.1128C93.8579 34.0809 93.7232 34.0649 93.5884 34.0649C93.3863 34.0649 93.2357 34.0951 93.1364 34.1554C93.0407 34.2156 92.9928 34.2919 92.9928 34.384C92.9928 34.4691 93.0247 34.533 93.0885 34.5755C93.1523 34.618 93.2357 34.6517 93.3385 34.6765C93.4413 34.7014 93.5547 34.7226 93.6788 34.7404C93.8065 34.7545 93.9323 34.7776 94.0564 34.8095C94.1805 34.8414 94.294 34.8857 94.3968 34.9425C94.5032 34.9956 94.5883 35.0719 94.6521 35.1711C94.7159 35.2704 94.7478 35.3998 94.7478 35.5594C94.7478 35.7367 94.6946 35.8909 94.5883 36.0221C94.4854 36.1532 94.3383 36.2561 94.1468 36.3305C93.9554 36.4014 93.7267 36.4369 93.4608 36.4369ZM96.6552 36.4369C96.3396 36.4369 96.0631 36.3748 95.8255 36.2507C95.5915 36.1231 95.4089 35.9494 95.2778 35.7296C95.1501 35.5097 95.0863 35.2598 95.0863 34.9797C95.0863 34.696 95.1484 34.4461 95.2724 34.2298C95.4001 34.01 95.5738 33.838 95.7936 33.7139C96.017 33.5899 96.2705 33.5278 96.5541 33.5278C96.8307 33.5278 97.0771 33.5881 97.2934 33.7086C97.5097 33.8292 97.6798 33.9994 97.8039 34.2192C97.928 34.439 97.9901 34.6978 97.9901 34.9956C97.9901 35.024 97.9883 35.0559 97.9848 35.0914C97.9848 35.1268 97.983 35.1605 97.9794 35.1924H95.6128V34.751H97.6284L97.3678 34.8893C97.3714 34.7262 97.3377 34.5826 97.2668 34.4585C97.1959 34.3344 97.0984 34.2369 96.9743 34.166C96.8537 34.0951 96.7137 34.0596 96.5541 34.0596C96.391 34.0596 96.2475 34.0951 96.1234 34.166C96.0028 34.2369 95.9071 34.3362 95.8362 34.4638C95.7688 34.5879 95.7351 34.735 95.7351 34.9052V35.0116C95.7351 35.1818 95.7741 35.3325 95.8521 35.4636C95.9301 35.5948 96.04 35.6959 96.1819 35.7668C96.3237 35.8377 96.4868 35.8732 96.6711 35.8732C96.8307 35.8732 96.9743 35.8483 97.1019 35.7987C97.2296 35.7491 97.343 35.6711 97.4423 35.5647L97.7986 35.9742C97.671 36.1231 97.5097 36.2383 97.3147 36.3199C97.1232 36.3979 96.9034 36.4369 96.6552 36.4369ZM101.167 36.4369C100.855 36.4369 100.614 36.3571 100.444 36.1976C100.274 36.0345 100.189 35.7952 100.189 35.4796V32.9322H100.854V35.4636C100.854 35.5984 100.887 35.703 100.955 35.7774C101.026 35.8519 101.123 35.8891 101.247 35.8891C101.396 35.8891 101.52 35.8501 101.619 35.7721L101.806 36.2454C101.728 36.3092 101.632 36.3571 101.518 36.389C101.405 36.4209 101.288 36.4369 101.167 36.4369ZM99.7208 34.1128V33.581H101.614V34.1128H99.7208ZM102.352 36.3997V33.5597H103.017V36.3997H102.352ZM102.687 33.0917C102.563 33.0917 102.461 33.0527 102.379 32.9747C102.301 32.8967 102.262 32.8028 102.262 32.6928C102.262 32.5794 102.301 32.4854 102.379 32.411C102.461 32.333 102.563 32.294 102.687 32.294C102.812 32.294 102.913 32.3312 102.991 32.4057C103.072 32.4766 103.113 32.567 103.113 32.6769C103.113 32.7939 103.074 32.8932 102.996 32.9747C102.918 33.0527 102.815 33.0917 102.687 33.0917ZM107.474 33.5278C107.701 33.5278 107.901 33.5721 108.075 33.6608C108.252 33.7494 108.391 33.8859 108.49 34.0703C108.589 34.2511 108.639 34.4851 108.639 34.7723V36.3997H107.974V34.8574C107.974 34.6056 107.919 34.4177 107.809 34.2936C107.699 34.1695 107.542 34.1075 107.336 34.1075C107.191 34.1075 107.061 34.1394 106.948 34.2032C106.838 34.267 106.751 34.361 106.687 34.4851C106.627 34.6092 106.597 34.767 106.597 34.9584V36.3997H105.932V34.8574C105.932 34.6056 105.877 34.4177 105.767 34.2936C105.657 34.1695 105.499 34.1075 105.294 34.1075C105.148 34.1075 105.019 34.1394 104.906 34.2032C104.796 34.267 104.709 34.361 104.645 34.4851C104.585 34.6092 104.555 34.767 104.555 34.9584V36.3997H103.89V33.5597H104.523V34.3149L104.411 34.0915C104.507 33.9072 104.645 33.7671 104.826 33.6714C105.01 33.5757 105.219 33.5278 105.453 33.5278C105.719 33.5278 105.95 33.5934 106.145 33.7246C106.343 33.8558 106.474 34.0543 106.538 34.3202L106.278 34.2298C106.37 34.0171 106.522 33.8469 106.735 33.7193C106.948 33.5916 107.194 33.5278 107.474 33.5278ZM110.829 36.4369C110.513 36.4369 110.236 36.3748 109.999 36.2507C109.765 36.1231 109.582 35.9494 109.451 35.7296C109.323 35.5097 109.26 35.2598 109.26 34.9797C109.26 34.696 109.322 34.4461 109.446 34.2298C109.573 34.01 109.747 33.838 109.967 33.7139C110.19 33.5899 110.444 33.5278 110.727 33.5278C111.004 33.5278 111.25 33.5881 111.467 33.7086C111.683 33.8292 111.853 33.9994 111.977 34.2192C112.101 34.439 112.163 34.6978 112.163 34.9956C112.163 35.024 112.162 35.0559 112.158 35.0914C112.158 35.1268 112.156 35.1605 112.153 35.1924H109.786V34.751H111.802L111.541 34.8893C111.545 34.7262 111.511 34.5826 111.44 34.4585C111.369 34.3344 111.272 34.2369 111.148 34.166C111.027 34.0951 110.887 34.0596 110.727 34.0596C110.564 34.0596 110.421 34.0951 110.297 34.166C110.176 34.2369 110.08 34.3362 110.01 34.4638C109.942 34.5879 109.908 34.735 109.908 34.9052V35.0116C109.908 35.1818 109.947 35.3325 110.025 35.4636C110.103 35.5948 110.213 35.6959 110.355 35.7668C110.497 35.8377 110.66 35.8732 110.844 35.8732C111.004 35.8732 111.148 35.8483 111.275 35.7987C111.403 35.7491 111.516 35.6711 111.616 35.5647L111.972 35.9742C111.844 36.1231 111.683 36.2383 111.488 36.3199C111.297 36.3979 111.077 36.4369 110.829 36.4369Z" fill="white"/>
<rect width="69.8796" height="46.8266" rx="21.6123" fill="#023471"/>
<path d="M21.4925 23.4071V21.8337L29.5392 11.5393H31.9667L23.9874 21.8337L22.8411 21.4741H35.4056V23.4071H21.4925ZM30.2359 27.2731V23.4071L30.3034 21.4741V18.0576H32.4162V27.2731H30.2359ZM41.8108 27.4529C40.7019 27.4529 39.623 27.2806 38.5741 26.9359C37.5402 26.5913 36.6936 26.1268 36.0342 25.5424L37.0682 23.7667C37.5926 24.2612 38.2744 24.6658 39.1136 24.9804C39.9527 25.2951 40.8443 25.4525 41.7883 25.4525C42.987 25.4525 43.9086 25.1977 44.5529 24.6882C45.1973 24.1788 45.5194 23.497 45.5194 22.6429C45.5194 22.0585 45.3771 21.549 45.0924 21.1144C44.8077 20.6799 44.3132 20.3502 43.6089 20.1255C42.9196 19.8857 41.9681 19.7658 40.7544 19.7658H37.1806L38.0122 11.5393H46.8905V13.4948H38.8438L40.0126 12.3935L39.3608 18.8892L38.192 17.8104H41.2264C42.7997 17.8104 44.0659 18.0126 45.0249 18.4172C45.984 18.8218 46.6807 19.3837 47.1153 20.103C47.5498 20.8073 47.7671 21.6239 47.7671 22.553C47.7671 23.452 47.5498 24.2762 47.1153 25.0254C46.6807 25.7596 46.0214 26.3515 45.1373 26.8011C44.2682 27.2356 43.1594 27.4529 41.8108 27.4529Z" fill="white"/>
<path d="M13.8708 34.1743L13.8849 33.4375L15.1941 32.2268H15.898L14.7859 33.3437L14.4762 33.6018L13.8708 34.1743ZM13.3922 34.7327V31.2508H13.9787V34.7327H13.3922ZM15.2833 34.7327L14.3682 33.6018L14.7389 33.1325L15.9966 34.7327H15.2833ZM19.5153 32.1987C19.7155 32.1987 19.8923 32.2378 20.0456 32.316C20.202 32.3942 20.324 32.5146 20.4116 32.6773C20.4992 32.8369 20.543 33.0433 20.543 33.2967V34.7327H19.9564V33.3718C19.9564 33.1497 19.9079 32.9839 19.811 32.8744C19.714 32.7649 19.5748 32.7102 19.3933 32.7102C19.2651 32.7102 19.1509 32.7383 19.0508 32.7946C18.9538 32.8509 18.8771 32.9338 18.8208 33.0433C18.7676 33.1528 18.741 33.292 18.741 33.461V34.7327H18.1545V33.3718C18.1545 33.1497 18.106 32.9839 18.009 32.8744C17.912 32.7649 17.7728 32.7102 17.5914 32.7102C17.4631 32.7102 17.3489 32.7383 17.2488 32.7946C17.1518 32.8509 17.0752 32.9338 17.0189 33.0433C16.9657 33.1528 16.9391 33.292 16.9391 33.461V34.7327H16.3525V32.2268H16.9109V32.8932L16.8124 32.6961C16.8969 32.5334 17.0189 32.4098 17.1784 32.3254C17.3411 32.2409 17.5257 32.1987 17.7321 32.1987C17.9668 32.1987 18.1701 32.2566 18.3422 32.3723C18.5174 32.4881 18.6331 32.6632 18.6894 32.8979L18.4595 32.8181C18.5408 32.6304 18.6754 32.4802 18.8631 32.3676C19.0508 32.255 19.2682 32.1987 19.5153 32.1987ZM20.767 35.2019L22.3155 30.7815H22.8411L21.2926 35.2019H20.767ZM24.4558 32.1987C24.656 32.1987 24.8343 32.2378 24.9907 32.316C25.1503 32.3942 25.2754 32.5146 25.3662 32.6773C25.4569 32.8369 25.5022 33.0433 25.5022 33.2967V34.7327H24.9157V33.3718C24.9157 33.1497 24.8625 32.9839 24.7561 32.8744C24.6529 32.7649 24.5074 32.7102 24.3197 32.7102C24.1821 32.7102 24.0601 32.7383 23.9537 32.7946C23.8473 32.8509 23.7644 32.9354 23.705 33.048C23.6487 33.1575 23.6205 33.2967 23.6205 33.4657V34.7327H23.0339V31.2508H23.6205V32.9026L23.4938 32.6961C23.5814 32.5365 23.7081 32.4145 23.8739 32.3301C24.0428 32.2425 24.2368 32.1987 24.4558 32.1987ZM27.135 34.7327L28.6131 31.4479H29.2138L30.6966 34.7327H30.0584L28.7867 31.7717H29.0308L27.7638 34.7327H27.135ZM27.8154 33.9725L27.9796 33.4938H29.7534L29.9177 33.9725H27.8154ZM31.5961 34.7327L30.5215 32.2268H31.1315L32.056 34.437H31.7556L32.7129 32.2268H33.276L32.2014 34.7327H31.5961ZM34.7095 35.6759C34.478 35.6759 34.2512 35.6446 34.0291 35.582C33.8101 35.5226 33.6302 35.435 33.4894 35.3192L33.7522 34.8781C33.8617 34.9689 33.9994 35.0408 34.1652 35.094C34.3341 35.1503 34.5046 35.1785 34.6767 35.1785C34.9519 35.1785 35.1537 35.1143 35.282 34.9861C35.4103 34.8609 35.4744 34.6717 35.4744 34.4183V33.9725L35.5213 33.4047L35.5025 32.8369V32.2268H36.061V34.3526C36.061 34.8062 35.9452 35.1394 35.7137 35.3521C35.4822 35.5679 35.1475 35.6759 34.7095 35.6759ZM34.6344 34.62C34.3967 34.62 34.1808 34.57 33.9868 34.4699C33.796 34.3666 33.6443 34.2243 33.5317 34.0429C33.4222 33.8614 33.3674 33.6487 33.3674 33.4047C33.3674 33.1638 33.4222 32.9526 33.5317 32.7712C33.6443 32.5897 33.796 32.4489 33.9868 32.3488C34.1808 32.2487 34.3967 32.1987 34.6344 32.1987C34.8471 32.1987 35.038 32.2409 35.2069 32.3254C35.3758 32.4098 35.5104 32.5412 35.6105 32.7196C35.7137 32.8979 35.7653 33.1262 35.7653 33.4047C35.7653 33.6831 35.7137 33.913 35.6105 34.0945C35.5104 34.2728 35.3758 34.4058 35.2069 34.4933C35.038 34.5778 34.8471 34.62 34.6344 34.62ZM34.7236 34.1226C34.8706 34.1226 35.002 34.0929 35.1178 34.0335C35.2335 33.9709 35.3227 33.8864 35.3852 33.7801C35.4509 33.6706 35.4838 33.5454 35.4838 33.4047C35.4838 33.2639 35.4509 33.1403 35.3852 33.034C35.3227 32.9245 35.2335 32.8416 35.1178 32.7852C35.002 32.7258 34.8706 32.6961 34.7236 32.6961C34.5765 32.6961 34.4436 32.7258 34.3247 32.7852C34.209 32.8416 34.1182 32.9245 34.0525 33.034C33.99 33.1403 33.9587 33.2639 33.9587 33.4047C33.9587 33.5454 33.99 33.6706 34.0525 33.7801C34.1182 33.8864 34.209 33.9709 34.3247 34.0335C34.4436 34.0929 34.5765 34.1226 34.7236 34.1226ZM39.2036 34.7796C38.9471 34.7796 38.7015 34.7436 38.4669 34.6717C38.2322 34.5966 38.0461 34.5012 37.9084 34.3854L38.1196 33.9115C38.251 34.0147 38.4137 34.1007 38.6076 34.1696C38.8016 34.2384 39.0002 34.2728 39.2036 34.2728C39.3756 34.2728 39.5149 34.254 39.6212 34.2165C39.7276 34.1789 39.8058 34.1289 39.8559 34.0663C39.9059 34.0006 39.9309 33.9271 39.9309 33.8458C39.9309 33.7457 39.895 33.6659 39.823 33.6064C39.7511 33.5439 39.6572 33.4954 39.5415 33.461C39.4288 33.4234 39.3021 33.389 39.1614 33.3577C39.0237 33.3265 38.8845 33.2905 38.7437 33.2498C38.6061 33.206 38.4794 33.1513 38.3636 33.0856C38.251 33.0167 38.1587 32.926 38.0868 32.8134C38.0148 32.7008 37.9788 32.5569 37.9788 32.3817C37.9788 32.2034 38.0258 32.0407 38.1196 31.8937C38.2166 31.7435 38.3621 31.6246 38.556 31.537C38.7531 31.4463 39.0018 31.4009 39.3021 31.4009C39.4992 31.4009 39.6947 31.426 39.8887 31.476C40.0827 31.5261 40.2516 31.598 40.3955 31.6919L40.2031 32.1658C40.0561 32.0782 39.9043 32.0141 39.7479 31.9734C39.5915 31.9296 39.4413 31.9077 39.2974 31.9077C39.1285 31.9077 38.9909 31.9281 38.8845 31.9687C38.7813 32.0094 38.7046 32.0626 38.6546 32.1283C38.6076 32.194 38.5842 32.2691 38.5842 32.3535C38.5842 32.4536 38.6186 32.535 38.6874 32.5975C38.7594 32.657 38.8516 32.7039 38.9643 32.7383C39.08 32.7727 39.2083 32.8071 39.3491 32.8416C39.4898 32.8728 39.629 32.9088 39.7667 32.9495C39.9075 32.9902 40.0342 33.0433 40.1468 33.109C40.2625 33.1747 40.3548 33.2639 40.4237 33.3765C40.4956 33.4891 40.5316 33.6315 40.5316 33.8035C40.5316 33.9787 40.4831 34.1414 40.3861 34.2916C40.2923 34.4386 40.1468 34.5575 39.9497 34.6482C39.7526 34.7358 39.5039 34.7796 39.2036 34.7796ZM42.4692 34.7655C42.2658 34.7655 42.0797 34.7186 41.9108 34.6247C41.745 34.5309 41.612 34.3901 41.5119 34.2024C41.4149 34.0116 41.3664 33.7707 41.3664 33.4797C41.3664 33.1857 41.4133 32.9448 41.5072 32.7571C41.6042 32.5694 41.7356 32.4302 41.9014 32.3395C42.0672 32.2456 42.2564 32.1987 42.4692 32.1987C42.7163 32.1987 42.9337 32.2519 43.1214 32.3582C43.3123 32.4646 43.4624 32.6132 43.5719 32.804C43.6846 32.9949 43.7409 33.2201 43.7409 33.4797C43.7409 33.7394 43.6846 33.9662 43.5719 34.1602C43.4624 34.351 43.3123 34.4996 43.1214 34.606C42.9337 34.7123 42.7163 34.7655 42.4692 34.7655ZM41.0802 35.643V32.2268H41.6386V32.8181L41.6198 33.4844L41.6667 34.1508V35.643H41.0802ZM42.4035 34.2634C42.5443 34.2634 42.6694 34.2321 42.7789 34.1696C42.8915 34.107 42.9807 34.0163 43.0464 33.8974C43.1121 33.7785 43.1449 33.6393 43.1449 33.4797C43.1449 33.3171 43.1121 33.1779 43.0464 33.0621C42.9807 32.9432 42.8915 32.8525 42.7789 32.7899C42.6694 32.7274 42.5443 32.6961 42.4035 32.6961C42.2627 32.6961 42.136 32.7274 42.0234 32.7899C41.9108 32.8525 41.8216 32.9432 41.7559 33.0621C41.6902 33.1779 41.6574 33.3171 41.6574 33.4797C41.6574 33.6393 41.6902 33.7785 41.7559 33.8974C41.8216 34.0163 41.9108 34.107 42.0234 34.1696C42.136 34.2321 42.2627 34.2634 42.4035 34.2634ZM45.475 34.7655C45.1966 34.7655 44.9525 34.7108 44.7429 34.6013C44.5365 34.4887 44.3754 34.3354 44.2596 34.1414C44.147 33.9474 44.0907 33.7269 44.0907 33.4797C44.0907 33.2295 44.1454 33.0089 44.2549 32.8181C44.3675 32.6241 44.5208 32.4724 44.7148 32.3629C44.9119 32.2534 45.1356 32.1987 45.3858 32.1987C45.6298 32.1987 45.8473 32.2519 46.0381 32.3582C46.2289 32.4646 46.3791 32.6148 46.4886 32.8087C46.5981 33.0027 46.6528 33.231 46.6528 33.4938C46.6528 33.5189 46.6513 33.547 46.6481 33.5783C46.6481 33.6096 46.6466 33.6393 46.6434 33.6675H44.5552V33.278H46.3337L46.1038 33.4C46.1069 33.2561 46.0772 33.1294 46.0146 33.0199C45.9521 32.9104 45.866 32.8244 45.7565 32.7618C45.6502 32.6992 45.5266 32.6679 45.3858 32.6679C45.2419 32.6679 45.1152 32.6992 45.0057 32.7618C44.8994 32.8244 44.8149 32.9119 44.7523 33.0246C44.6929 33.1341 44.6632 33.2639 44.6632 33.4141V33.5079C44.6632 33.6581 44.6976 33.791 44.7664 33.9068C44.8352 34.0225 44.9322 34.1117 45.0574 34.1743C45.1825 34.2368 45.3264 34.2681 45.4891 34.2681C45.6298 34.2681 45.7565 34.2462 45.8692 34.2024C45.9818 34.1586 46.0819 34.0898 46.1695 33.9959L46.4839 34.3573C46.3713 34.4887 46.2289 34.5903 46.0569 34.6623C45.8879 34.7311 45.694 34.7655 45.475 34.7655ZM48.3941 34.7655C48.1157 34.7655 47.8717 34.7108 47.6621 34.6013C47.4556 34.4887 47.2945 34.3354 47.1787 34.1414C47.0661 33.9474 47.0098 33.7269 47.0098 33.4797C47.0098 33.2295 47.0645 33.0089 47.174 32.8181C47.2866 32.6241 47.4399 32.4724 47.6339 32.3629C47.831 32.2534 48.0547 32.1987 48.3049 32.1987C48.549 32.1987 48.7664 32.2519 48.9572 32.3582C49.148 32.4646 49.2982 32.6148 49.4077 32.8087C49.5172 33.0027 49.5719 33.231 49.5719 33.4938C49.5719 33.5189 49.5704 33.547 49.5672 33.5783C49.5672 33.6096 49.5657 33.6393 49.5625 33.6675H47.4744V33.278H49.2528L49.0229 33.4C49.026 33.2561 48.9963 33.1294 48.9337 33.0199C48.8712 32.9104 48.7851 32.8244 48.6757 32.7618C48.5693 32.6992 48.4457 32.6679 48.3049 32.6679C48.161 32.6679 48.0343 32.6992 47.9248 32.7618C47.8185 32.8244 47.734 32.9119 47.6714 33.0246C47.612 33.1341 47.5823 33.2639 47.5823 33.4141V33.5079C47.5823 33.6581 47.6167 33.791 47.6855 33.9068C47.7543 34.0225 47.8513 34.1117 47.9765 34.1743C48.1016 34.2368 48.2455 34.2681 48.4082 34.2681C48.549 34.2681 48.6757 34.2462 48.7883 34.2024C48.9009 34.1586 49.001 34.0898 49.0886 33.9959L49.403 34.3573C49.2904 34.4887 49.148 34.5903 48.976 34.6623C48.807 34.7311 48.6131 34.7655 48.3941 34.7655ZM51.1959 34.7655C50.955 34.7655 50.7376 34.7123 50.5436 34.606C50.3528 34.4965 50.2026 34.3463 50.0931 34.1555C49.9836 33.9646 49.9289 33.7394 49.9289 33.4797C49.9289 33.2201 49.9836 32.9949 50.0931 32.804C50.2026 32.6132 50.3528 32.4646 50.5436 32.3582C50.7376 32.2519 50.955 32.1987 51.1959 32.1987C51.4055 32.1987 51.5932 32.2456 51.759 32.3395C51.9248 32.4302 52.0562 32.5694 52.1532 32.7571C52.2502 32.9448 52.2986 33.1857 52.2986 33.4797C52.2986 33.7707 52.2517 34.0116 52.1579 34.2024C52.064 34.3901 51.9342 34.5309 51.7684 34.6247C51.6026 34.7186 51.4117 34.7655 51.1959 34.7655ZM51.2663 34.2634C51.4071 34.2634 51.5322 34.2321 51.6417 34.1696C51.7543 34.107 51.8435 34.0163 51.9092 33.8974C51.978 33.7785 52.0124 33.6393 52.0124 33.4797C52.0124 33.3171 51.978 33.1779 51.9092 33.0621C51.8435 32.9432 51.7543 32.8525 51.6417 32.7899C51.5322 32.7274 51.4071 32.6961 51.2663 32.6961C51.1255 32.6961 50.9988 32.7274 50.8862 32.7899C50.7767 32.8525 50.6875 32.9432 50.6187 33.0621C50.553 33.1779 50.5202 33.3171 50.5202 33.4797C50.5202 33.6393 50.553 33.7785 50.6187 33.8974C50.6875 34.0163 50.7767 34.107 50.8862 34.1696C50.9988 34.2321 51.1255 34.2634 51.2663 34.2634ZM52.0265 34.7327V34.1414L52.0499 33.4751L52.003 32.8087V31.2508H52.5849V34.7327H52.0265Z" fill="white"/>
</g>
<defs>
<clipPath id="clip0_2_3">
<rect width="235" height="46.8266" rx="21.6123" fill="white"/>
</clipPath>
</defs>
</svg>
