<svg width="185" height="47" viewBox="0 0 185 47" fill="none" xmlns="http://www.w3.org/2000/svg">
<g clip-path="url(#clip0_77_18)">
<rect width="185" height="47" rx="21.6123" fill="#5F7BC6"/>
<rect x="-50.8672" width="235.867" height="46.8266" rx="21.6123" fill="#3159A1"/>
<path d="M133.938 24.0244V22.2413L143.058 10.5743H145.809L136.766 22.2413L135.467 21.8337H149.707V24.0244H133.938ZM143.848 28.4059V24.0244L143.924 21.8337V17.9617H146.319V28.4059H143.848ZM158.437 28.6097C156.993 28.6097 155.745 28.3974 154.692 27.9728C153.639 27.5483 152.824 26.9454 152.247 26.1642C151.669 25.366 151.381 24.432 151.381 23.3621C151.381 22.3092 151.652 21.4176 152.196 20.6874C152.756 19.9401 153.563 19.3797 154.616 19.0061C155.669 18.6155 156.942 18.4202 158.437 18.4202C159.931 18.4202 161.205 18.6155 162.258 19.0061C163.328 19.3797 164.143 19.9401 164.703 20.6874C165.264 21.4346 165.544 22.3262 165.544 23.3621C165.544 24.432 165.255 25.366 164.678 26.1642C164.1 26.9454 163.277 27.5483 162.207 27.9728C161.137 28.3974 159.88 28.6097 158.437 28.6097ZM158.437 26.5463C159.863 26.5463 160.976 26.2576 161.774 25.6802C162.589 25.0858 162.997 24.2876 162.997 23.2857C162.997 22.3007 162.589 21.528 161.774 20.9676C160.976 20.3902 159.863 20.1015 158.437 20.1015C157.027 20.1015 155.923 20.3902 155.125 20.9676C154.327 21.528 153.928 22.3007 153.928 23.2857C153.928 24.2876 154.327 25.0858 155.125 25.6802C155.923 26.2576 157.027 26.5463 158.437 26.5463ZM158.437 19.7958C157.078 19.7958 155.923 19.6175 154.972 19.2608C154.021 18.8872 153.291 18.3608 152.782 17.6815C152.272 16.9852 152.017 16.1615 152.017 15.2105C152.017 14.2086 152.281 13.351 152.807 12.6377C153.351 11.9074 154.106 11.347 155.074 10.9564C156.042 10.5658 157.163 10.3705 158.437 10.3705C159.727 10.3705 160.857 10.5658 161.825 10.9564C162.793 11.347 163.548 11.9074 164.092 12.6377C164.635 13.351 164.907 14.2086 164.907 15.2105C164.907 16.1615 164.652 16.9852 164.143 17.6815C163.633 18.3608 162.895 18.8872 161.927 19.2608C160.959 19.6175 159.795 19.7958 158.437 19.7958ZM158.437 18.1655C159.676 18.1655 160.644 17.9107 161.341 17.4013C162.054 16.8918 162.411 16.1955 162.411 15.3124C162.411 14.4124 162.046 13.7076 161.315 13.1981C160.585 12.6886 159.626 12.4339 158.437 12.4339C157.248 12.4339 156.297 12.6886 155.584 13.1981C154.887 13.7076 154.539 14.4124 154.539 15.3124C154.539 16.1955 154.879 16.8918 155.558 17.4013C156.255 17.9107 157.214 18.1655 158.437 18.1655Z" fill="white"/>
<path d="M133.757 37.6189C133.467 37.6189 133.188 37.5781 132.922 37.4965C132.656 37.4114 132.445 37.3033 132.289 37.1721L132.529 36.635C132.678 36.752 132.862 36.8495 133.082 36.9275C133.302 37.0055 133.527 37.0445 133.757 37.0445C133.952 37.0445 134.11 37.0232 134.231 36.9807C134.351 36.9381 134.44 36.8814 134.497 36.8105C134.553 36.736 134.582 36.6527 134.582 36.5605C134.582 36.4471 134.541 36.3567 134.459 36.2893C134.378 36.2184 134.271 36.1634 134.14 36.1244C134.013 36.0819 133.869 36.0429 133.709 36.0074C133.553 35.972 133.396 35.9312 133.236 35.8851C133.08 35.8355 132.937 35.7734 132.805 35.699C132.678 35.621 132.573 35.5181 132.492 35.3905C132.41 35.2629 132.369 35.0998 132.369 34.9012C132.369 34.6991 132.422 34.5148 132.529 34.3481C132.639 34.178 132.804 34.0432 133.023 33.9439C133.247 33.8411 133.529 33.7897 133.869 33.7897C134.092 33.7897 134.314 33.8181 134.534 33.8748C134.754 33.9315 134.945 34.0131 135.108 34.1194L134.89 34.6566C134.723 34.5573 134.551 34.4846 134.374 34.4385C134.197 34.3889 134.027 34.3641 133.864 34.3641C133.672 34.3641 133.516 34.3871 133.396 34.4332C133.279 34.4793 133.192 34.5396 133.135 34.614C133.082 34.6885 133.055 34.7736 133.055 34.8693C133.055 34.9828 133.094 35.075 133.172 35.1459C133.254 35.2132 133.358 35.2664 133.486 35.3054C133.617 35.3444 133.763 35.3834 133.922 35.4224C134.082 35.4579 134.239 35.4986 134.395 35.5447C134.555 35.5908 134.699 35.6511 134.826 35.7256C134.957 35.8 135.062 35.9011 135.14 36.0287C135.222 36.1563 135.262 36.3177 135.262 36.5127C135.262 36.7112 135.207 36.8956 135.098 37.0658C134.991 37.2324 134.826 37.3671 134.603 37.4699C134.38 37.5692 134.098 37.6189 133.757 37.6189ZM135.884 37.5657V34.7257H136.549V37.5657H135.884ZM136.219 34.2577C136.095 34.2577 135.992 34.2187 135.911 34.1407C135.833 34.0627 135.794 33.9688 135.794 33.8589C135.794 33.7454 135.833 33.6514 135.911 33.577C135.992 33.499 136.095 33.46 136.219 33.46C136.343 33.46 136.444 33.4972 136.522 33.5717C136.604 33.6426 136.645 33.733 136.645 33.8429C136.645 33.9599 136.606 34.0592 136.528 34.1407C136.45 34.2187 136.347 34.2577 136.219 34.2577ZM138.708 38.6346C138.446 38.6346 138.189 38.5992 137.937 38.5283C137.689 38.4609 137.485 38.3616 137.326 38.2305L137.624 37.7305C137.748 37.8334 137.904 37.9149 138.092 37.9752C138.283 38.039 138.476 38.0709 138.671 38.0709C138.983 38.0709 139.212 37.9982 139.357 37.8529C139.503 37.711 139.575 37.4965 139.575 37.2094V36.7041L139.628 36.0606L139.607 35.4171V34.7257H140.24V37.1349C140.24 37.649 140.109 38.0266 139.847 38.2677C139.584 38.5123 139.205 38.6346 138.708 38.6346ZM138.623 37.438C138.354 37.438 138.109 37.3813 137.889 37.2679C137.673 37.1509 137.501 36.9895 137.374 36.7839C137.249 36.5783 137.187 36.3372 137.187 36.0606C137.187 35.7876 137.249 35.5483 137.374 35.3426C137.501 35.137 137.673 34.9775 137.889 34.864C138.109 34.7505 138.354 34.6938 138.623 34.6938C138.864 34.6938 139.081 34.7417 139.272 34.8374C139.464 34.9331 139.616 35.0821 139.73 35.2841C139.847 35.4862 139.905 35.7451 139.905 36.0606C139.905 36.3762 139.847 36.6368 139.73 36.8424C139.616 37.0445 139.464 37.1952 139.272 37.2944C139.081 37.3902 138.864 37.438 138.623 37.438ZM138.724 36.8743C138.891 36.8743 139.04 36.8406 139.171 36.7733C139.302 36.7023 139.403 36.6066 139.474 36.4861C139.549 36.362 139.586 36.2202 139.586 36.0606C139.586 35.9011 139.549 35.761 139.474 35.6405C139.403 35.5164 139.302 35.4224 139.171 35.3586C139.04 35.2912 138.891 35.2576 138.724 35.2576C138.558 35.2576 138.407 35.2912 138.272 35.3586C138.141 35.4224 138.038 35.5164 137.964 35.6405C137.893 35.761 137.858 35.9011 137.858 36.0606C137.858 36.2202 137.893 36.362 137.964 36.4861C138.038 36.6066 138.141 36.7023 138.272 36.7733C138.407 36.8406 138.558 36.8743 138.724 36.8743ZM142.725 34.6938C142.952 34.6938 143.154 34.7381 143.332 34.8268C143.513 34.9154 143.654 35.0519 143.757 35.2363C143.86 35.4171 143.911 35.6511 143.911 35.9383V37.5657H143.247V36.0234C143.247 35.7717 143.186 35.5837 143.066 35.4596C142.949 35.3356 142.784 35.2735 142.571 35.2735C142.415 35.2735 142.277 35.3054 142.156 35.3692C142.036 35.4331 141.942 35.5288 141.875 35.6564C141.811 35.7805 141.779 35.9383 141.779 36.1297V37.5657H141.114V34.7257H141.747V35.4916L141.635 35.2576C141.735 35.0767 141.878 34.9385 142.066 34.8427C142.257 34.7435 142.477 34.6938 142.725 34.6938ZM146.504 37.5657V36.9913L146.467 36.869V35.8638C146.467 35.6688 146.409 35.5181 146.292 35.4118C146.175 35.3019 145.997 35.2469 145.76 35.2469C145.6 35.2469 145.443 35.2717 145.287 35.3214C145.134 35.371 145.005 35.4401 144.898 35.5288L144.638 35.0448C144.79 34.9278 144.971 34.841 145.18 34.7842C145.393 34.724 145.613 34.6938 145.84 34.6938C146.251 34.6938 146.568 34.7931 146.792 34.9916C147.019 35.1866 147.132 35.4898 147.132 35.9011V37.5657H146.504ZM145.611 37.6029C145.398 37.6029 145.212 37.5674 145.053 37.4965C144.893 37.4221 144.769 37.321 144.68 37.1934C144.595 37.0622 144.553 36.9151 144.553 36.752C144.553 36.5924 144.59 36.4488 144.664 36.3212C144.742 36.1936 144.868 36.0925 145.042 36.0181C145.216 35.9436 145.446 35.9064 145.733 35.9064H146.558V36.3478H145.781C145.554 36.3478 145.402 36.385 145.324 36.4595C145.246 36.5304 145.207 36.619 145.207 36.7254C145.207 36.8459 145.255 36.9417 145.35 37.0126C145.446 37.0835 145.579 37.1189 145.749 37.1189C145.912 37.1189 146.058 37.0817 146.185 37.0073C146.317 36.9328 146.411 36.8229 146.467 36.6775L146.579 37.0764C146.515 37.243 146.4 37.3724 146.233 37.4646C146.07 37.5568 145.863 37.6029 145.611 37.6029ZM147.985 37.5657V33.6195H148.65V37.5657H147.985ZM150.4 37.6029C150.162 37.6029 149.934 37.5728 149.714 37.5125C149.498 37.4487 149.326 37.3724 149.198 37.2838L149.453 36.7786C149.581 36.8601 149.733 36.9275 149.911 36.9807C150.088 37.0338 150.265 37.0604 150.443 37.0604C150.652 37.0604 150.802 37.0321 150.895 36.9753C150.99 36.9186 151.038 36.8424 151.038 36.7467C151.038 36.6687 151.006 36.6102 150.942 36.5712C150.879 36.5286 150.795 36.4967 150.693 36.4754C150.59 36.4542 150.474 36.4347 150.347 36.4169C150.223 36.3992 150.097 36.3762 149.969 36.3478C149.845 36.3159 149.732 36.2716 149.629 36.2148C149.526 36.1546 149.443 36.0748 149.379 35.9755C149.315 35.8762 149.283 35.7451 149.283 35.582C149.283 35.4011 149.335 35.2451 149.437 35.114C149.54 34.9792 149.684 34.8764 149.868 34.8055C150.056 34.731 150.278 34.6938 150.533 34.6938C150.724 34.6938 150.918 34.7151 151.113 34.7576C151.308 34.8002 151.469 34.8605 151.597 34.9385L151.341 35.4437C151.207 35.3621 151.07 35.3072 150.932 35.2788C150.797 35.2469 150.662 35.231 150.528 35.231C150.326 35.231 150.175 35.2611 150.076 35.3214C149.98 35.3816 149.932 35.4579 149.932 35.5501C149.932 35.6352 149.964 35.699 150.028 35.7415C150.092 35.7841 150.175 35.8177 150.278 35.8426C150.381 35.8674 150.494 35.8887 150.618 35.9064C150.746 35.9206 150.872 35.9436 150.996 35.9755C151.12 36.0074 151.233 36.0517 151.336 36.1085C151.442 36.1617 151.527 36.2379 151.591 36.3372C151.655 36.4364 151.687 36.5658 151.687 36.7254C151.687 36.9027 151.634 37.0569 151.527 37.1881C151.425 37.3193 151.278 37.4221 151.086 37.4965C150.895 37.5674 150.666 37.6029 150.4 37.6029ZM153.82 37.5657V34.5662C153.82 34.2684 153.907 34.0308 154.08 33.8535C154.258 33.6727 154.509 33.5823 154.836 33.5823C154.953 33.5823 155.062 33.5947 155.165 33.6195C155.272 33.6444 155.36 33.6834 155.431 33.7365L155.25 34.2365C155.201 34.1975 155.144 34.1691 155.08 34.1514C155.016 34.1301 154.951 34.1194 154.883 34.1194C154.745 34.1194 154.641 34.1585 154.57 34.2365C154.499 34.3109 154.463 34.4244 154.463 34.5768V34.8959L154.485 35.1937V37.5657H153.82ZM153.352 35.2788V34.747H155.245V35.2788H153.352ZM155.698 37.5657V34.7257H156.331V35.5075L156.256 35.2788C156.341 35.0874 156.474 34.942 156.655 34.8427C156.839 34.7435 157.068 34.6938 157.341 34.6938V35.3267C157.313 35.3196 157.286 35.3161 157.261 35.3161C157.236 35.3125 157.212 35.3107 157.187 35.3107C156.935 35.3107 156.735 35.3852 156.586 35.5341C156.437 35.6795 156.362 35.8975 156.362 36.1882V37.5657H155.698ZM159.214 37.6029C158.898 37.6029 158.622 37.5409 158.384 37.4168C158.15 37.2891 157.968 37.1154 157.836 36.8956C157.709 36.6758 157.645 36.4258 157.645 36.1457C157.645 35.8621 157.707 35.6121 157.831 35.3958C157.959 35.176 158.133 35.0041 158.352 34.88C158.576 34.7559 158.829 34.6938 159.113 34.6938C159.389 34.6938 159.636 34.7541 159.852 34.8746C160.068 34.9952 160.239 35.1654 160.363 35.3852C160.487 35.605 160.549 35.8638 160.549 36.1617C160.549 36.19 160.547 36.2219 160.543 36.2574C160.543 36.2928 160.542 36.3265 160.538 36.3584H158.172V35.917H160.187L159.927 36.0553C159.93 35.8922 159.896 35.7486 159.825 35.6245C159.755 35.5004 159.657 35.4029 159.533 35.332C159.412 35.2611 159.272 35.2256 159.113 35.2256C158.95 35.2256 158.806 35.2611 158.682 35.332C158.562 35.4029 158.466 35.5022 158.395 35.6298C158.328 35.7539 158.294 35.9011 158.294 36.0712V36.1776C158.294 36.3478 158.333 36.4985 158.411 36.6297C158.489 36.7608 158.599 36.8619 158.741 36.9328C158.882 37.0037 159.045 37.0392 159.23 37.0392C159.389 37.0392 159.533 37.0143 159.661 36.9647C159.788 36.9151 159.902 36.8371 160.001 36.7307L160.357 37.1402C160.23 37.2891 160.068 37.4044 159.873 37.4859C159.682 37.5639 159.462 37.6029 159.214 37.6029ZM162.522 37.6029C162.207 37.6029 161.93 37.5409 161.693 37.4168C161.459 37.2891 161.276 37.1154 161.145 36.8956C161.017 36.6758 160.953 36.4258 160.953 36.1457C160.953 35.8621 161.015 35.6121 161.139 35.3958C161.267 35.176 161.441 35.0041 161.661 34.88C161.884 34.7559 162.138 34.6938 162.421 34.6938C162.698 34.6938 162.944 34.7541 163.16 34.8746C163.377 34.9952 163.547 35.1654 163.671 35.3852C163.795 35.605 163.857 35.8638 163.857 36.1617C163.857 36.19 163.855 36.2219 163.852 36.2574C163.852 36.2928 163.85 36.3265 163.846 36.3584H161.48V35.917H163.495L163.235 36.0553C163.238 35.8922 163.205 35.7486 163.134 35.6245C163.063 35.5004 162.965 35.4029 162.841 35.332C162.721 35.2611 162.581 35.2256 162.421 35.2256C162.258 35.2256 162.114 35.2611 161.99 35.332C161.87 35.4029 161.774 35.5022 161.703 35.6298C161.636 35.7539 161.602 35.9011 161.602 36.0712V36.1776C161.602 36.3478 161.641 36.4985 161.719 36.6297C161.797 36.7608 161.907 36.8619 162.049 36.9328C162.191 37.0037 162.354 37.0392 162.538 37.0392C162.698 37.0392 162.841 37.0143 162.969 36.9647C163.097 36.9151 163.21 36.8371 163.309 36.7307L163.666 37.1402C163.538 37.2891 163.377 37.4044 163.182 37.4859C162.99 37.5639 162.77 37.6029 162.522 37.6029ZM165.698 37.6029C165.425 37.6029 165.178 37.5426 164.958 37.4221C164.742 37.298 164.572 37.1278 164.448 36.9115C164.324 36.6953 164.262 36.44 164.262 36.1457C164.262 35.8514 164.324 35.5961 164.448 35.3799C164.572 35.1636 164.742 34.9952 164.958 34.8746C165.178 34.7541 165.425 34.6938 165.698 34.6938C165.935 34.6938 166.148 34.747 166.336 34.8534C166.524 34.9562 166.673 35.114 166.782 35.3267C166.892 35.5394 166.947 35.8124 166.947 36.1457C166.947 36.4754 166.894 36.7484 166.788 36.9647C166.681 37.1774 166.534 37.337 166.346 37.4434C166.158 37.5497 165.942 37.6029 165.698 37.6029ZM165.777 37.0338C165.937 37.0338 166.079 36.9984 166.203 36.9275C166.33 36.8566 166.431 36.7538 166.506 36.619C166.584 36.4843 166.623 36.3265 166.623 36.1457C166.623 35.9613 166.584 35.8036 166.506 35.6724C166.431 35.5376 166.33 35.4348 166.203 35.3639C166.079 35.293 165.937 35.2576 165.777 35.2576C165.618 35.2576 165.474 35.293 165.347 35.3639C165.222 35.4348 165.121 35.5376 165.043 35.6724C164.969 35.8036 164.932 35.9613 164.932 36.1457C164.932 36.3265 164.969 36.4843 165.043 36.619C165.121 36.7538 165.222 36.8566 165.347 36.9275C165.474 36.9984 165.618 37.0338 165.777 37.0338ZM166.639 37.5657V36.8956L166.665 36.1404L166.612 35.3852V33.6195H167.272V37.5657H166.639Z" fill="white"/>
<rect x="-50" width="174.299" height="46.8266" rx="21.6123" fill="#194789"/>
<path d="M86.9039 28.4059V11.5933L87.9993 12.7905H82.8791V10.5743H89.4258V28.4059H86.9039ZM93.0461 28.4059V26.6737L100.306 19.6684C100.951 19.0571 101.427 18.5221 101.733 18.0636C102.055 17.5881 102.268 17.155 102.369 16.7644C102.488 16.3568 102.548 15.9662 102.548 15.5926C102.548 14.6756 102.225 13.9538 101.58 13.4274C100.934 12.9009 99.9919 12.6377 98.7522 12.6377C97.8011 12.6377 96.9435 12.799 96.1793 13.1217C95.4151 13.4274 94.7528 13.9114 94.1924 14.5737L92.4602 13.0707C93.1395 12.2046 94.048 11.5423 95.1858 11.0838C96.3406 10.6083 97.6058 10.3705 98.9814 10.3705C100.221 10.3705 101.3 10.5743 102.217 10.9819C103.134 11.3725 103.838 11.9414 104.331 12.6886C104.84 13.4359 105.095 14.319 105.095 15.3379C105.095 15.9153 105.019 16.4842 104.866 17.0446C104.713 17.6051 104.424 18.1994 104 18.8278C103.575 19.4561 102.964 20.1609 102.166 20.9421L95.6953 27.1831L95.0839 26.1897H105.859V28.4059H93.0461Z" fill="white"/>
<path d="M80.3448 35.3905H82.1955V35.9596H80.3448V35.3905ZM80.398 36.986H82.4987V37.5657H79.7066V33.8429H82.4242V34.4226H80.398V36.986ZM86.7901 34.6938C87.017 34.6938 87.2173 34.7381 87.391 34.8268C87.5683 34.9154 87.7066 35.0519 87.8059 35.2363C87.9051 35.4171 87.9548 35.6511 87.9548 35.9383V37.5657H87.29V36.0234C87.29 35.7717 87.235 35.5837 87.1251 35.4596C87.0152 35.3356 86.8574 35.2735 86.6518 35.2735C86.5064 35.2735 86.377 35.3054 86.2636 35.3692C86.1537 35.4331 86.0668 35.527 86.003 35.6511C85.9427 35.7752 85.9126 35.933 85.9126 36.1244V37.5657H85.2478V36.0234C85.2478 35.7717 85.1928 35.5837 85.0829 35.4596C84.973 35.3356 84.8152 35.2735 84.6096 35.2735C84.4642 35.2735 84.3348 35.3054 84.2214 35.3692C84.1114 35.4331 84.0246 35.527 83.9608 35.6511C83.9005 35.7752 83.8704 35.933 83.8704 36.1244V37.5657H83.2056V34.7257H83.8384V35.4809L83.7268 35.2576C83.8225 35.0732 83.9608 34.9331 84.1416 34.8374C84.3259 34.7417 84.5351 34.6938 84.7691 34.6938C85.035 34.6938 85.2655 34.7594 85.4605 34.8906C85.6591 35.0218 85.7902 35.2203 85.8541 35.4862L85.5935 35.3958C85.6856 35.1831 85.8381 35.0129 86.0508 34.8853C86.2636 34.7576 86.51 34.6938 86.7901 34.6938ZM90.1443 37.6029C89.8288 37.6029 89.5522 37.5409 89.3147 37.4168C89.0807 37.2891 88.8981 37.1154 88.7669 36.8956C88.6393 36.6758 88.5755 36.4258 88.5755 36.1457C88.5755 35.8621 88.6375 35.6121 88.7616 35.3958C88.8892 35.176 89.063 35.0041 89.2828 34.88C89.5062 34.7559 89.7597 34.6938 90.0433 34.6938C90.3198 34.6938 90.5663 34.7541 90.7825 34.8746C90.9988 34.9952 91.169 35.1654 91.2931 35.3852C91.4172 35.605 91.4792 35.8638 91.4792 36.1617C91.4792 36.19 91.4775 36.2219 91.4739 36.2574C91.4739 36.2928 91.4721 36.3265 91.4686 36.3584H89.102V35.917H91.1176L90.857 36.0553C90.8605 35.8922 90.8269 35.7486 90.7559 35.6245C90.685 35.5004 90.5875 35.4029 90.4634 35.332C90.3429 35.2611 90.2028 35.2256 90.0433 35.2256C89.8802 35.2256 89.7366 35.2611 89.6125 35.332C89.492 35.4029 89.3962 35.5022 89.3253 35.6298C89.258 35.7539 89.2243 35.9011 89.2243 36.0712V36.1776C89.2243 36.3478 89.2633 36.4985 89.3413 36.6297C89.4193 36.7608 89.5292 36.8619 89.671 36.9328C89.8128 37.0037 89.9759 37.0392 90.1603 37.0392C90.3198 37.0392 90.4634 37.0143 90.5911 36.9647C90.7187 36.9151 90.8322 36.8371 90.9314 36.7307L91.2878 37.1402C91.1601 37.2891 90.9988 37.4044 90.8038 37.4859C90.6124 37.5639 90.3925 37.6029 90.1443 37.6029ZM92.1178 37.5657V34.7257H92.7507V35.5075L92.6762 35.2788C92.7613 35.0874 92.8943 34.942 93.0751 34.8427C93.2594 34.7435 93.4881 34.6938 93.7611 34.6938V35.3267C93.7328 35.3196 93.7062 35.3161 93.6814 35.3161C93.6565 35.3125 93.6317 35.3107 93.6069 35.3107C93.3552 35.3107 93.1548 35.3852 93.0059 35.5341C92.857 35.6795 92.7826 35.8975 92.7826 36.1882V37.5657H92.1178ZM95.5861 38.6346C95.3237 38.6346 95.0667 38.5992 94.815 38.5283C94.5668 38.4609 94.3629 38.3616 94.2034 38.2305L94.5012 37.7305C94.6253 37.8334 94.7813 37.9149 94.9692 37.9752C95.1607 38.039 95.3539 38.0709 95.5489 38.0709C95.8609 38.0709 96.0896 37.9982 96.2349 37.8529C96.3803 37.711 96.453 37.4965 96.453 37.2094V36.7041L96.5062 36.0606L96.4849 35.4171V34.7257H97.1178V37.1349C97.1178 37.649 96.9866 38.0266 96.7242 38.2677C96.4619 38.5123 96.0825 38.6346 95.5861 38.6346ZM95.501 37.438C95.2316 37.438 94.9869 37.3813 94.7671 37.2679C94.5508 37.1509 94.3789 36.9895 94.2512 36.7839C94.1271 36.5783 94.0651 36.3372 94.0651 36.0606C94.0651 35.7876 94.1271 35.5483 94.2512 35.3426C94.3789 35.137 94.5508 34.9775 94.7671 34.864C94.9869 34.7505 95.2316 34.6938 95.501 34.6938C95.7421 34.6938 95.9584 34.7417 96.1499 34.8374C96.3413 34.9331 96.4938 35.0821 96.6072 35.2841C96.7242 35.4862 96.7827 35.7451 96.7827 36.0606C96.7827 36.3762 96.7242 36.6368 96.6072 36.8424C96.4938 37.0445 96.3413 37.1952 96.1499 37.2944C95.9584 37.3902 95.7421 37.438 95.501 37.438ZM95.6021 36.8743C95.7687 36.8743 95.9176 36.8406 96.0488 36.7733C96.18 36.7023 96.281 36.6066 96.3519 36.4861C96.4264 36.362 96.4636 36.2202 96.4636 36.0606C96.4636 35.9011 96.4264 35.761 96.3519 35.6405C96.281 35.5164 96.18 35.4224 96.0488 35.3586C95.9176 35.2912 95.7687 35.2576 95.6021 35.2576C95.4354 35.2576 95.2847 35.2912 95.15 35.3586C95.0188 35.4224 94.916 35.5164 94.8416 35.6405C94.7707 35.761 94.7352 35.9011 94.7352 36.0606C94.7352 36.2202 94.7707 36.362 94.8416 36.4861C94.916 36.6066 95.0188 36.7023 95.15 36.7733C95.2847 36.8406 95.4354 36.8743 95.6021 36.8743ZM99.3266 37.6029C99.0111 37.6029 98.7345 37.5409 98.497 37.4168C98.263 37.2891 98.0804 37.1154 97.9492 36.8956C97.8216 36.6758 97.7577 36.4258 97.7577 36.1457C97.7577 35.8621 97.8198 35.6121 97.9439 35.3958C98.0715 35.176 98.2453 35.0041 98.4651 34.88C98.6884 34.7559 98.9419 34.6938 99.2256 34.6938C99.5021 34.6938 99.7485 34.7541 99.9648 34.8746C100.181 34.9952 100.351 35.1654 100.475 35.3852C100.599 35.605 100.662 35.8638 100.662 36.1617C100.662 36.19 100.66 36.2219 100.656 36.2574C100.656 36.2928 100.654 36.3265 100.651 36.3584H98.2843V35.917H100.3L100.039 36.0553C100.043 35.8922 100.009 35.7486 99.9382 35.6245C99.8673 35.5004 99.7698 35.4029 99.6457 35.332C99.5252 35.2611 99.3851 35.2256 99.2256 35.2256C99.0625 35.2256 98.9189 35.2611 98.7948 35.332C98.6743 35.4029 98.5785 35.5022 98.5076 35.6298C98.4403 35.7539 98.4066 35.9011 98.4066 36.0712V36.1776C98.4066 36.3478 98.4456 36.4985 98.5236 36.6297C98.6016 36.7608 98.7115 36.8619 98.8533 36.9328C98.9951 37.0037 99.1582 37.0392 99.3426 37.0392C99.5021 37.0392 99.6457 37.0143 99.7734 36.9647C99.901 36.9151 100.014 36.8371 100.114 36.7307L100.47 37.1402C100.342 37.2891 100.181 37.4044 99.9861 37.4859C99.7946 37.5639 99.5748 37.6029 99.3266 37.6029ZM102.912 34.6938C103.138 34.6938 103.341 34.7381 103.518 34.8268C103.699 34.9154 103.84 35.0519 103.943 35.2363C104.046 35.4171 104.097 35.6511 104.097 35.9383V37.5657H103.433V36.0234C103.433 35.7717 103.372 35.5837 103.252 35.4596C103.135 35.3356 102.97 35.2735 102.757 35.2735C102.601 35.2735 102.463 35.3054 102.342 35.3692C102.222 35.4331 102.128 35.5288 102.061 35.6564C101.997 35.7805 101.965 35.9383 101.965 36.1297V37.5657H101.3V34.7257H101.933V35.4916L101.821 35.2576C101.921 35.0767 102.064 34.9385 102.252 34.8427C102.443 34.7435 102.663 34.6938 102.912 34.6938ZM106.249 37.6029C105.951 37.6029 105.685 37.5409 105.451 37.4168C105.221 37.2891 105.04 37.1154 104.909 36.8956C104.778 36.6758 104.712 36.4258 104.712 36.1457C104.712 35.8621 104.778 35.6121 104.909 35.3958C105.04 35.176 105.221 35.0041 105.451 34.88C105.685 34.7559 105.951 34.6938 106.249 34.6938C106.526 34.6938 106.768 34.7505 106.978 34.864C107.19 34.9739 107.352 35.137 107.462 35.3533L106.951 35.6511C106.866 35.5164 106.761 35.4171 106.637 35.3533C106.517 35.2895 106.385 35.2576 106.244 35.2576C106.081 35.2576 105.933 35.293 105.802 35.3639C105.671 35.4348 105.568 35.5376 105.494 35.6724C105.419 35.8036 105.382 35.9613 105.382 36.1457C105.382 36.3301 105.419 36.4896 105.494 36.6243C105.568 36.7555 105.671 36.8566 105.802 36.9275C105.933 36.9984 106.081 37.0338 106.244 37.0338C106.385 37.0338 106.517 37.0019 106.637 36.9381C106.761 36.8743 106.866 36.775 106.951 36.6403L107.462 36.9381C107.352 37.1509 107.19 37.3157 106.978 37.4327C106.768 37.5462 106.526 37.6029 106.249 37.6029ZM108.234 38.6346C108.096 38.6346 107.957 38.6116 107.819 38.5655C107.681 38.5194 107.565 38.4556 107.473 38.374L107.739 37.8848C107.807 37.945 107.883 37.9929 107.968 38.0284C108.053 38.0638 108.14 38.0815 108.229 38.0815C108.349 38.0815 108.447 38.0514 108.521 37.9911C108.595 37.9309 108.665 37.8298 108.728 37.688L108.893 37.3157L108.946 37.2359L110.021 34.7257H110.659L109.329 37.7944C109.241 38.0071 109.141 38.1755 109.032 38.2996C108.925 38.4237 108.805 38.5105 108.67 38.5602C108.539 38.6098 108.393 38.6346 108.234 38.6346ZM108.819 37.6667L107.537 34.7257H108.229L109.271 37.1774L108.819 37.6667Z" fill="white"/>
<rect width="77" height="47" rx="21.6123" fill="#023471"/>
<path d="M28.6976 27.5387V10.7261L29.7929 11.9233H24.6727V9.70714H31.2195V27.5387H28.6976ZM40.877 27.7425C39.6203 27.7425 38.3975 27.5472 37.2087 27.1566C36.037 26.766 35.0774 26.2395 34.3302 25.5772L35.502 23.5648C36.0964 24.1252 36.8691 24.5838 37.8201 24.9404C38.7711 25.297 39.7816 25.4753 40.8515 25.4753C42.2101 25.4753 43.2545 25.1866 43.9847 24.6092C44.715 24.0318 45.0801 23.2591 45.0801 22.2911C45.0801 21.6288 44.9188 21.0514 44.5961 20.5589C44.2734 20.0664 43.713 19.6928 42.9148 19.4381C42.1337 19.1664 41.0553 19.0305 39.6797 19.0305H35.6294L36.5719 9.70714H46.634V11.9233H37.5144L38.8391 10.6751L38.1003 18.037L36.7757 16.8143H40.2146C41.9978 16.8143 43.4328 17.0436 44.5197 17.5021C45.6066 17.9606 46.3962 18.5974 46.8887 19.4126C47.3812 20.2108 47.6275 21.1363 47.6275 22.1892C47.6275 23.2082 47.3812 24.1422 46.8887 24.9913C46.3962 25.8235 45.649 26.4943 44.6471 27.0037C43.6621 27.4962 42.4054 27.7425 40.877 27.7425Z" fill="white"/>
<path d="M53.6652 25.1097C53.8921 25.1097 54.0925 25.154 54.2662 25.2427C54.4435 25.3313 54.5817 25.4678 54.681 25.6522C54.7803 25.833 54.8299 26.067 54.8299 26.3542V27.9816H54.1652V26.4393C54.1652 26.1875 54.1102 25.9996 54.0003 25.8755C53.8904 25.7514 53.7326 25.6894 53.527 25.6894C53.3816 25.6894 53.2522 25.7213 53.1387 25.7851C53.0288 25.849 52.942 25.9429 52.8781 26.067C52.8179 26.1911 52.7877 26.3489 52.7877 26.5403V27.9816H52.1229V26.4393C52.1229 26.1875 52.068 25.9996 51.9581 25.8755C51.8482 25.7514 51.6904 25.6894 51.4848 25.6894C51.3394 25.6894 51.21 25.7213 51.0965 25.7851C50.9866 25.849 50.8997 25.9429 50.8359 26.067C50.7757 26.1911 50.7455 26.3489 50.7455 26.5403V27.9816H50.0807V25.1416H50.7136V25.8968L50.6019 25.6734C50.6977 25.4891 50.8359 25.349 51.0167 25.2533C51.2011 25.1576 51.4103 25.1097 51.6443 25.1097C51.9102 25.1097 52.1407 25.1753 52.3357 25.3065C52.5342 25.4377 52.6654 25.6362 52.7292 25.9021L52.4686 25.8117C52.5608 25.599 52.7133 25.4288 52.926 25.3012C53.1387 25.1735 53.3851 25.1097 53.6652 25.1097ZM55.6794 27.9816V25.1416H56.3442V27.9816H55.6794ZM56.0145 24.6736C55.8904 24.6736 55.7876 24.6346 55.706 24.5566C55.628 24.4786 55.589 24.3847 55.589 24.2747C55.589 24.1613 55.628 24.0673 55.706 23.9929C55.7876 23.9149 55.8904 23.8759 56.0145 23.8759C56.1386 23.8759 56.2396 23.9131 56.3176 23.9876C56.3992 24.0585 56.4399 24.1489 56.4399 24.2588C56.4399 24.3758 56.4009 24.4751 56.3229 24.5566C56.2449 24.6346 56.1421 24.6736 56.0145 24.6736ZM58.8282 25.1097C59.0551 25.1097 59.2572 25.154 59.4345 25.2427C59.6153 25.3313 59.7571 25.4678 59.8599 25.6522C59.9627 25.833 60.0141 26.067 60.0141 26.3542V27.9816H59.3494V26.4393C59.3494 26.1875 59.2891 25.9996 59.1685 25.8755C59.0515 25.7514 58.8867 25.6894 58.6739 25.6894C58.5179 25.6894 58.3797 25.7213 58.2591 25.7851C58.1386 25.849 58.0446 25.9447 57.9773 26.0723C57.9134 26.1964 57.8815 26.3542 57.8815 26.5456V27.9816H57.2167V25.1416H57.8496V25.9075L57.7379 25.6734C57.8372 25.4926 57.9808 25.3544 58.1687 25.2586C58.3602 25.1594 58.58 25.1097 58.8282 25.1097Z" fill="white"/>
<path d="M23.6422 36.3997V33.5597H24.2751V34.3415L24.2006 34.1128C24.2857 33.9214 24.4187 33.776 24.5995 33.6767C24.7839 33.5774 25.0126 33.5278 25.2856 33.5278V34.1607C25.2572 34.1536 25.2306 34.15 25.2058 34.15C25.181 34.1465 25.1561 34.1447 25.1313 34.1447C24.8796 34.1447 24.6793 34.2192 24.5304 34.3681C24.3815 34.5135 24.307 34.7315 24.307 35.0222V36.3997H23.6422ZM27.1584 36.4369C26.8429 36.4369 26.5663 36.3748 26.3288 36.2507C26.0948 36.1231 25.9122 35.9494 25.781 35.7296C25.6534 35.5097 25.5895 35.2598 25.5895 34.9797C25.5895 34.696 25.6516 34.4461 25.7757 34.2298C25.9033 34.01 26.077 33.838 26.2969 33.7139C26.5202 33.5899 26.7737 33.5278 27.0574 33.5278C27.3339 33.5278 27.5803 33.5881 27.7966 33.7086C28.0129 33.8292 28.1831 33.9994 28.3072 34.2192C28.4312 34.439 28.4933 34.6978 28.4933 34.9956C28.4933 35.024 28.4915 35.0559 28.488 35.0914C28.488 35.1268 28.4862 35.1605 28.4827 35.1924H26.116V34.751H28.1317L27.8711 34.8893C27.8746 34.7262 27.8409 34.5826 27.77 34.4585C27.6991 34.3344 27.6016 34.2369 27.4775 34.166C27.357 34.0951 27.2169 34.0596 27.0574 34.0596C26.8943 34.0596 26.7507 34.0951 26.6266 34.166C26.506 34.2369 26.4103 34.3362 26.3394 34.4638C26.272 34.5879 26.2384 34.735 26.2384 34.9052V35.0116C26.2384 35.1818 26.2774 35.3325 26.3554 35.4636C26.4334 35.5948 26.5433 35.6959 26.6851 35.7668C26.8269 35.8377 26.99 35.8732 27.1744 35.8732C27.3339 35.8732 27.4775 35.8483 27.6051 35.7987C27.7328 35.7491 27.8462 35.6711 27.9455 35.5647L28.3018 35.9742C28.1742 36.1231 28.0129 36.2383 27.8179 36.3199C27.6264 36.3979 27.4066 36.4369 27.1584 36.4369ZM30.0094 36.4369C29.7718 36.4369 29.5431 36.4067 29.3233 36.3465C29.107 36.2827 28.9351 36.2064 28.8074 36.1178L29.0627 35.6126C29.1904 35.6941 29.3428 35.7615 29.5201 35.8147C29.6974 35.8678 29.8746 35.8944 30.0519 35.8944C30.2611 35.8944 30.4118 35.8661 30.504 35.8093C30.5997 35.7526 30.6476 35.6764 30.6476 35.5806C30.6476 35.5026 30.6156 35.4441 30.5518 35.4051C30.488 35.3626 30.4047 35.3307 30.3019 35.3094C30.1991 35.2881 30.0838 35.2686 29.9562 35.2509C29.8321 35.2332 29.7062 35.2101 29.5786 35.1818C29.4545 35.1499 29.341 35.1056 29.2382 35.0488C29.1354 34.9885 29.0521 34.9088 28.9883 34.8095C28.9244 34.7102 28.8925 34.579 28.8925 34.416C28.8925 34.2351 28.9439 34.0791 29.0468 33.9479C29.1496 33.8132 29.2932 33.7104 29.4775 33.6395C29.6655 33.565 29.887 33.5278 30.1423 33.5278C30.3338 33.5278 30.527 33.5491 30.722 33.5916C30.917 33.6342 31.0783 33.6944 31.206 33.7724L30.9507 34.2777C30.816 34.1961 30.6795 34.1412 30.5412 34.1128C30.4065 34.0809 30.2717 34.0649 30.137 34.0649C29.9349 34.0649 29.7842 34.0951 29.685 34.1554C29.5892 34.2156 29.5414 34.2919 29.5414 34.384C29.5414 34.4691 29.5733 34.533 29.6371 34.5755C29.7009 34.618 29.7842 34.6517 29.887 34.6765C29.9899 34.7014 30.1033 34.7226 30.2274 34.7404C30.3551 34.7545 30.4809 34.7776 30.605 34.8095C30.7291 34.8414 30.8426 34.8857 30.9454 34.9425C31.0517 34.9956 31.1368 35.0719 31.2007 35.1711C31.2645 35.2704 31.2964 35.3998 31.2964 35.5594C31.2964 35.7367 31.2432 35.8909 31.1368 36.0221C31.034 36.1532 30.8869 36.2561 30.6954 36.3305C30.504 36.4014 30.2753 36.4369 30.0094 36.4369ZM33.4431 36.4369C33.2126 36.4369 33.0017 36.3837 32.8102 36.2773C32.6223 36.171 32.4716 36.0114 32.3582 35.7987C32.2483 35.5824 32.1933 35.3094 32.1933 34.9797C32.1933 34.6464 32.2465 34.3734 32.3528 34.1607C32.4628 33.9479 32.6117 33.7902 32.7996 33.6874C32.9875 33.581 33.202 33.5278 33.4431 33.5278C33.7232 33.5278 33.9696 33.5881 34.1823 33.7086C34.3986 33.8292 34.5688 33.9976 34.6929 34.2139C34.8205 34.4301 34.8843 34.6854 34.8843 34.9797C34.8843 35.274 34.8205 35.531 34.6929 35.7508C34.5688 35.9671 34.3986 36.1355 34.1823 36.2561C33.9696 36.3766 33.7232 36.4369 33.4431 36.4369ZM31.8689 37.4314V33.5597H32.5018V34.2298L32.4805 34.985L32.5337 35.7402V37.4314H31.8689ZM33.3686 35.8678C33.5282 35.8678 33.67 35.8324 33.7941 35.7615C33.9217 35.6906 34.0228 35.5877 34.0972 35.453C34.1717 35.3183 34.2089 35.1605 34.2089 34.9797C34.2089 34.7953 34.1717 34.6375 34.0972 34.5064C34.0228 34.3716 33.9217 34.2688 33.7941 34.1979C33.67 34.127 33.5282 34.0915 33.3686 34.0915C33.2091 34.0915 33.0655 34.127 32.9379 34.1979C32.8102 34.2688 32.7092 34.3716 32.6347 34.5064C32.5603 34.6375 32.523 34.7953 32.523 34.9797C32.523 35.1605 32.5603 35.3183 32.6347 35.453C32.7092 35.5877 32.8102 35.6906 32.9379 35.7615C33.0655 35.8324 33.2091 35.8678 33.3686 35.8678ZM36.7912 36.4369C36.5004 36.4369 36.2416 36.3748 36.0147 36.2507C35.7878 36.1231 35.6087 35.9494 35.4776 35.7296C35.3464 35.5097 35.2808 35.2598 35.2808 34.9797C35.2808 34.696 35.3464 34.4461 35.4776 34.2298C35.6087 34.01 35.7878 33.838 36.0147 33.7139C36.2416 33.5899 36.5004 33.5278 36.7912 33.5278C37.0854 33.5278 37.346 33.5899 37.573 33.7139C37.8034 33.838 37.9825 34.0082 38.1101 34.2245C38.2413 34.4408 38.3069 34.6925 38.3069 34.9797C38.3069 35.2598 38.2413 35.5097 38.1101 35.7296C37.9825 35.9494 37.8034 36.1231 37.573 36.2507C37.346 36.3748 37.0854 36.4369 36.7912 36.4369ZM36.7912 35.8678C36.9543 35.8678 37.0996 35.8324 37.2273 35.7615C37.3549 35.6906 37.4542 35.5877 37.5251 35.453C37.5995 35.3183 37.6368 35.1605 37.6368 34.9797C37.6368 34.7953 37.5995 34.6375 37.5251 34.5064C37.4542 34.3716 37.3549 34.2688 37.2273 34.1979C37.0996 34.127 36.956 34.0915 36.7965 34.0915C36.6334 34.0915 36.488 34.127 36.3604 34.1979C36.2363 34.2688 36.137 34.3716 36.0626 34.5064C35.9881 34.6375 35.9509 34.7953 35.9509 34.9797C35.9509 35.1605 35.9881 35.3183 36.0626 35.453C36.137 35.5877 36.2363 35.6906 36.3604 35.7615C36.488 35.8324 36.6316 35.8678 36.7912 35.8678ZM40.554 33.5278C40.7809 33.5278 40.983 33.5721 41.1603 33.6608C41.3411 33.7494 41.4829 33.8859 41.5857 34.0703C41.6886 34.2511 41.74 34.4851 41.74 34.7723V36.3997H41.0752V34.8574C41.0752 34.6056 41.0149 34.4177 40.8944 34.2936C40.7774 34.1695 40.6125 34.1075 40.3998 34.1075C40.2438 34.1075 40.1055 34.1394 39.9849 34.2032C39.8644 34.267 39.7704 34.3628 39.7031 34.4904C39.6393 34.6145 39.6073 34.7723 39.6073 34.9637V36.3997H38.9426V33.5597H39.5754V34.3255L39.4638 34.0915C39.563 33.9107 39.7066 33.7724 39.8945 33.6767C40.086 33.5774 40.3058 33.5278 40.554 33.5278ZM43.4608 36.4369C43.2232 36.4369 42.9946 36.4067 42.7747 36.3465C42.5585 36.2827 42.3865 36.2064 42.2589 36.1178L42.5141 35.6126C42.6418 35.6941 42.7942 35.7615 42.9715 35.8147C43.1488 35.8678 43.3261 35.8944 43.5033 35.8944C43.7125 35.8944 43.8632 35.8661 43.9554 35.8093C44.0511 35.7526 44.099 35.6764 44.099 35.5806C44.099 35.5026 44.0671 35.4441 44.0033 35.4051C43.9394 35.3626 43.8561 35.3307 43.7533 35.3094C43.6505 35.2881 43.5352 35.2686 43.4076 35.2509C43.2835 35.2332 43.1577 35.2101 43.03 35.1818C42.9059 35.1499 42.7925 35.1056 42.6896 35.0488C42.5868 34.9885 42.5035 34.9088 42.4397 34.8095C42.3759 34.7102 42.344 34.579 42.344 34.416C42.344 34.2351 42.3954 34.0791 42.4982 33.9479C42.601 33.8132 42.7446 33.7104 42.929 33.6395C43.1169 33.565 43.3385 33.5278 43.5937 33.5278C43.7852 33.5278 43.9784 33.5491 44.1734 33.5916C44.3684 33.6342 44.5298 33.6944 44.6574 33.7724L44.4021 34.2777C44.2674 34.1961 44.1309 34.1412 43.9926 34.1128C43.8579 34.0809 43.7232 34.0649 43.5884 34.0649C43.3863 34.0649 43.2357 34.0951 43.1364 34.1554C43.0407 34.2156 42.9928 34.2919 42.9928 34.384C42.9928 34.4691 43.0247 34.533 43.0885 34.5755C43.1523 34.618 43.2357 34.6517 43.3385 34.6765C43.4413 34.7014 43.5547 34.7226 43.6788 34.7404C43.8065 34.7545 43.9323 34.7776 44.0564 34.8095C44.1805 34.8414 44.294 34.8857 44.3968 34.9425C44.5032 34.9956 44.5883 35.0719 44.6521 35.1711C44.7159 35.2704 44.7478 35.3998 44.7478 35.5594C44.7478 35.7367 44.6946 35.8909 44.5883 36.0221C44.4854 36.1532 44.3383 36.2561 44.1468 36.3305C43.9554 36.4014 43.7267 36.4369 43.4608 36.4369ZM46.6552 36.4369C46.3396 36.4369 46.0631 36.3748 45.8255 36.2507C45.5915 36.1231 45.4089 35.9494 45.2778 35.7296C45.1501 35.5097 45.0863 35.2598 45.0863 34.9797C45.0863 34.696 45.1484 34.4461 45.2724 34.2298C45.4001 34.01 45.5738 33.838 45.7936 33.7139C46.017 33.5899 46.2705 33.5278 46.5541 33.5278C46.8307 33.5278 47.0771 33.5881 47.2934 33.7086C47.5097 33.8292 47.6798 33.9994 47.8039 34.2192C47.928 34.439 47.9901 34.6978 47.9901 34.9956C47.9901 35.024 47.9883 35.0559 47.9848 35.0914C47.9848 35.1268 47.983 35.1605 47.9794 35.1924H45.6128V34.751H47.6284L47.3678 34.8893C47.3714 34.7262 47.3377 34.5826 47.2668 34.4585C47.1959 34.3344 47.0984 34.2369 46.9743 34.166C46.8537 34.0951 46.7137 34.0596 46.5541 34.0596C46.391 34.0596 46.2475 34.0951 46.1234 34.166C46.0028 34.2369 45.9071 34.3362 45.8362 34.4638C45.7688 34.5879 45.7351 34.735 45.7351 34.9052V35.0116C45.7351 35.1818 45.7741 35.3325 45.8521 35.4636C45.9301 35.5948 46.04 35.6959 46.1819 35.7668C46.3237 35.8377 46.4868 35.8732 46.6711 35.8732C46.8307 35.8732 46.9743 35.8483 47.1019 35.7987C47.2296 35.7491 47.343 35.6711 47.4423 35.5647L47.7986 35.9742C47.671 36.1231 47.5097 36.2383 47.3147 36.3199C47.1232 36.3979 46.9034 36.4369 46.6552 36.4369ZM51.1674 36.4369C50.8554 36.4369 50.6143 36.3571 50.4441 36.1976C50.2739 36.0345 50.1888 35.7952 50.1888 35.4796V32.9322H50.8536V35.4636C50.8536 35.5984 50.8873 35.703 50.9547 35.7774C51.0256 35.8519 51.1231 35.8891 51.2472 35.8891C51.3961 35.8891 51.5202 35.8501 51.6194 35.7721L51.8056 36.2454C51.7276 36.3092 51.6318 36.3571 51.5184 36.389C51.4049 36.4209 51.2879 36.4369 51.1674 36.4369ZM49.7208 34.1128V33.581H51.6141V34.1128H49.7208ZM52.3524 36.3997V33.5597H53.0172V36.3997H52.3524ZM52.6875 33.0917C52.5634 33.0917 52.4606 33.0527 52.379 32.9747C52.301 32.8967 52.262 32.8028 52.262 32.6928C52.262 32.5794 52.301 32.4854 52.379 32.411C52.4606 32.333 52.5634 32.294 52.6875 32.294C52.8116 32.294 52.9126 32.3312 52.9906 32.4057C53.0722 32.4766 53.113 32.567 53.113 32.6769C53.113 32.7939 53.074 32.8932 52.996 32.9747C52.918 33.0527 52.8151 33.0917 52.6875 33.0917ZM57.4742 33.5278C57.7012 33.5278 57.9015 33.5721 58.0752 33.6608C58.2525 33.7494 58.3908 33.8859 58.49 34.0703C58.5893 34.2511 58.6389 34.4851 58.6389 34.7723V36.3997H57.9742V34.8574C57.9742 34.6056 57.9192 34.4177 57.8093 34.2936C57.6994 34.1695 57.5416 34.1075 57.336 34.1075C57.1906 34.1075 57.0612 34.1394 56.9477 34.2032C56.8378 34.267 56.751 34.361 56.6871 34.4851C56.6269 34.6092 56.5967 34.767 56.5967 34.9584V36.3997H55.932V34.8574C55.932 34.6056 55.877 34.4177 55.7671 34.2936C55.6572 34.1695 55.4994 34.1075 55.2938 34.1075C55.1484 34.1075 55.019 34.1394 54.9055 34.2032C54.7956 34.267 54.7088 34.361 54.6449 34.4851C54.5847 34.6092 54.5545 34.767 54.5545 34.9584V36.3997H53.8897V33.5597H54.5226V34.3149L54.4109 34.0915C54.5067 33.9072 54.6449 33.7671 54.8258 33.6714C55.0101 33.5757 55.2193 33.5278 55.4533 33.5278C55.7192 33.5278 55.9497 33.5934 56.1447 33.7246C56.3432 33.8558 56.4744 34.0543 56.5382 34.3202L56.2776 34.2298C56.3698 34.0171 56.5223 33.8469 56.735 33.7193C56.9477 33.5916 57.1942 33.5278 57.4742 33.5278ZM60.8285 36.4369C60.513 36.4369 60.2364 36.3748 59.9989 36.2507C59.7649 36.1231 59.5823 35.9494 59.4511 35.7296C59.3235 35.5097 59.2596 35.2598 59.2596 34.9797C59.2596 34.696 59.3217 34.4461 59.4458 34.2298C59.5734 34.01 59.7471 33.838 59.967 33.7139C60.1903 33.5899 60.4438 33.5278 60.7275 33.5278C61.004 33.5278 61.2504 33.5881 61.4667 33.7086C61.683 33.8292 61.8532 33.9994 61.9773 34.2192C62.1014 34.439 62.1634 34.6978 62.1634 34.9956C62.1634 35.024 62.1616 35.0559 62.1581 35.0914C62.1581 35.1268 62.1563 35.1605 62.1528 35.1924H59.7861V34.751H61.8018L61.5412 34.8893C61.5447 34.7262 61.511 34.5826 61.4401 34.4585C61.3692 34.3344 61.2717 34.2369 61.1476 34.166C61.0271 34.0951 60.887 34.0596 60.7275 34.0596C60.5644 34.0596 60.4208 34.0951 60.2967 34.166C60.1762 34.2369 60.0804 34.3362 60.0095 34.4638C59.9422 34.5879 59.9085 34.735 59.9085 34.9052V35.0116C59.9085 35.1818 59.9475 35.3325 60.0255 35.4636C60.1035 35.5948 60.2134 35.6959 60.3552 35.7668C60.497 35.8377 60.6601 35.8732 60.8445 35.8732C61.004 35.8732 61.1476 35.8483 61.2753 35.7987C61.4029 35.7491 61.5164 35.6711 61.6156 35.5647L61.9719 35.9742C61.8443 36.1231 61.683 36.2383 61.488 36.3199C61.2965 36.3979 61.0767 36.4369 60.8285 36.4369Z" fill="white"/>
</g>
<defs>
<clipPath id="clip0_77_18">
<rect width="185" height="47" rx="21.6123" fill="white"/>
</clipPath>
</defs>
</svg>
